<?xml version="1.0" encoding="UTF-8"?>
<svg id="Layer_2" data-name="Layer 2" xmlns="http://www.w3.org/2000/svg" viewBox="0 0 342.45 74.53">
  <defs>
    <style>
      .cls-1 {
        fill: #023e29;
        stroke-width: 0px;
      }
    </style>
  </defs>
  <g id="Layer_1-2" data-name="Layer 1">
    <g>
      <g>
        <path class="cls-1" d="m70.97,59.75v6.34h8.34v1.48h-8.34v6.85h-1.71v-16.13h11.06v1.48h-9.36Z"/>
        <path class="cls-1" d="m91.81,73.73c-.94-.53-1.68-1.26-2.21-2.2-.54-.94-.81-2-.81-3.18s.27-2.24.81-3.18c.54-.94,1.28-1.67,2.21-2.19.94-.52,1.99-.78,3.16-.78s2.22.26,3.16.78c.94.52,1.67,1.25,2.2,2.19.53.94.8,2,.8,3.18s-.26,2.24-.8,3.18c-.53.94-1.26,1.67-2.2,2.2-.94.53-1.99.8-3.16.8s-2.22-.27-3.16-.8Zm5.47-1.24c.68-.39,1.22-.95,1.6-1.67.38-.72.58-1.54.58-2.47s-.19-1.74-.58-2.47c-.38-.72-.92-1.28-1.6-1.67-.68-.39-1.46-.59-2.32-.59s-1.63.2-2.32.59c-.68.39-1.22.95-1.61,1.67-.39.72-.59,1.54-.59,2.47s.2,1.74.59,2.47c.39.72.93,1.28,1.61,1.67.68.39,1.46.59,2.32.59s1.63-.2,2.32-.59Z"/>
        <path class="cls-1" d="m113.17,73.73c-.94-.53-1.68-1.26-2.21-2.2-.54-.94-.81-2-.81-3.18s.27-2.24.81-3.18c.54-.94,1.28-1.67,2.21-2.19.94-.52,1.99-.78,3.16-.78s2.22.26,3.16.78c.94.52,1.67,1.25,2.2,2.19.53.94.8,2,.8,3.18s-.26,2.24-.8,3.18c-.53.94-1.26,1.67-2.2,2.2-.94.53-1.99.8-3.16.8s-2.22-.27-3.16-.8Zm5.47-1.24c.68-.39,1.22-.95,1.6-1.67.38-.72.58-1.54.58-2.47s-.19-1.74-.58-2.47c-.38-.72-.92-1.28-1.6-1.67-.68-.39-1.46-.59-2.32-.59s-1.63.2-2.32.59c-.68.39-1.22.95-1.61,1.67-.39.72-.59,1.54-.59,2.47s.2,1.74.59,2.47c.39.72.93,1.28,1.61,1.67.68.39,1.46.59,2.32.59s1.63-.2,2.32-.59Z"/>
        <path class="cls-1" d="m143.81,57.31v17.1h-1.57v-2.4c-.49.81-1.14,1.44-1.95,1.87-.81.43-1.72.65-2.73.65-1.14,0-2.17-.26-3.09-.78-.92-.52-1.64-1.25-2.17-2.19-.52-.94-.78-2.01-.78-3.2s.26-2.27.78-3.2c.52-.94,1.24-1.66,2.17-2.18.92-.51,1.95-.77,3.09-.77.98,0,1.87.2,2.66.61.79.41,1.44,1,1.95,1.79v-7.28h1.64Zm-3.81,15.18c.68-.39,1.22-.95,1.61-1.67.39-.72.59-1.54.59-2.47s-.2-1.74-.59-2.47-.93-1.28-1.61-1.67c-.68-.39-1.45-.59-2.29-.59s-1.63.2-2.32.59c-.68.39-1.22.95-1.61,1.67-.39.72-.59,1.54-.59,2.47s.2,1.74.59,2.47c.39.72.93,1.28,1.61,1.67.68.39,1.46.59,2.32.59s1.61-.2,2.29-.59Z"/>
        <path class="cls-1" d="m185.34,58.28v16.13h-1.64v-12.91l-6.34,10.86h-.81l-6.34-10.79v12.84h-1.64v-16.13h1.41l7.01,11.96,6.94-11.96h1.41Z"/>
        <path class="cls-1" d="m205.05,63.38c.84.79,1.27,1.96,1.27,3.52v7.51h-1.57v-1.89c-.37.63-.91,1.12-1.63,1.48-.71.35-1.56.53-2.55.53-1.35,0-2.43-.32-3.23-.97-.8-.65-1.2-1.5-1.2-2.56s.37-1.86,1.12-2.49c.75-.63,1.93-.94,3.56-.94h3.85v-.74c0-1.04-.29-1.84-.88-2.39-.58-.55-1.44-.82-2.56-.82-.77,0-1.51.13-2.21.38-.71.25-1.31.6-1.82,1.05l-.74-1.22c.61-.52,1.35-.93,2.21-1.21.86-.28,1.77-.43,2.72-.43,1.58,0,2.8.4,3.64,1.19Zm-1.84,9.22c.66-.42,1.15-1.03,1.48-1.83v-1.98h-3.8c-2.07,0-3.11.72-3.11,2.17,0,.71.27,1.26.81,1.67.54.41,1.29.61,2.26.61s1.71-.21,2.37-.63Z"/>
        <path class="cls-1" d="m220.97,62.82c.76-.41,1.7-.62,2.82-.62v1.59l-.39-.02c-1.28,0-2.27.39-3,1.18-.72.78-1.08,1.88-1.08,3.3v6.18h-1.64v-12.12h1.57v2.37c.38-.81.96-1.43,1.72-1.84Z"/>
        <path class="cls-1" d="m238.15,68.33l-2.86,2.63v3.46h-1.64v-17.1h1.64v11.59l7.24-6.62h2.03l-5.19,4.96,5.67,7.17h-2.01l-4.89-6.09Z"/>
        <path class="cls-1" d="m264.49,68.86h-10.14c.09,1.26.58,2.28,1.45,3.05.88.78,1.98,1.16,3.32,1.16.75,0,1.44-.13,2.07-.4.63-.27,1.18-.66,1.64-1.19l.92,1.06c-.54.65-1.21,1.14-2.02,1.48-.81.34-1.69.51-2.66.51-1.24,0-2.35-.27-3.31-.8s-1.71-1.26-2.25-2.2c-.54-.94-.81-2-.81-3.18s.26-2.24.77-3.18c.51-.94,1.22-1.67,2.12-2.19.9-.52,1.91-.78,3.03-.78s2.13.26,3.02.78c.89.52,1.59,1.25,2.1,2.18.51.93.76,1.99.76,3.19l-.02.51Zm-8.79-4.14c-.79.75-1.24,1.72-1.35,2.92h8.6c-.11-1.2-.56-2.17-1.35-2.92-.79-.75-1.78-1.12-2.96-1.12s-2.15.37-2.94,1.12Z"/>
        <path class="cls-1" d="m281.16,73.68c-.31.28-.69.49-1.14.63s-.93.22-1.42.22c-1.14,0-2.01-.31-2.63-.92-.61-.61-.92-1.48-.92-2.6v-7.33h-2.17v-1.38h2.17v-2.65h1.64v2.65h3.69v1.38h-3.69v7.24c0,.72.18,1.27.54,1.65.36.38.88.56,1.56.56.34,0,.66-.05.98-.16.31-.11.59-.26.82-.46l.58,1.18Z"/>
      </g>
      <g>
        <path class="cls-1" d="m118.63,7.21c-4.63-4.55-10.75-6.83-18.38-6.83s-13.69,2.31-18.42,6.93c-4.72,4.61-7.08,10.38-7.08,17.3,0,6.44,2.26,12.04,6.78,16.83,4.53,4.78,10.62,7.17,18.31,7.17s14-2.31,18.69-6.94c.74-.73,1.42-1.49,2.05-2.28.63-6.84,1.57-13.83,4.05-20.83.07-.19.14-.37.2-.56-1.01-4.12-3.08-7.71-6.2-10.79Zm-11.47,23.82c-1.79,1.76-4.16,2.64-7.13,2.64s-5.25-.91-6.96-2.73c-1.72-1.82-2.59-3.95-2.59-6.41,0-2.63.9-4.83,2.7-6.59,1.8-1.76,4.13-2.63,7.01-2.63s5.23.87,6.99,2.6c1.76,1.74,2.64,3.91,2.64,6.52s-.89,4.83-2.67,6.6Z"/>
        <path class="cls-1" d="m336.44,2.13c-2.68.03-4.98,1.93-5.71,4.51l-4.98,17.59c-.04.15-.26.15-.3,0-1.98-7.8-3.41-21.53-14.24-21.58-10.81-.06-12.03,13.81-14,21.58-.04.16-.26.16-.3,0l-4.98-17.59c-.73-2.58-3.03-4.49-5.71-4.51-4.05-.04-6.95,3.89-5.73,7.74,0,0,10.89,34.43,10.89,34.43,1.95,6.18,13.92,6.05,15.48-.4,0,0,2.96-12.25,4.31-17.83.04-.16.26-.16.3,0,1.35,5.58,4.31,17.82,4.31,17.83,1.56,6.45,13.53,6.57,15.48.4,0,0,10.89-34.43,10.89-34.43,1.22-3.85-1.68-7.78-5.73-7.74Z"/>
        <path class="cls-1" d="m64.78,48.44c-5.18,1.4-12.23-.52-12.23-5.81v-23.48c0-1.94-.28-3.3-.84-4.08-.56-.77-1.56-1.16-2.98-1.16-3.4,0-5.1,2.47-5.1,7.42v21.29c0,8.35-17.44,8.41-17.44,0v-23.48c0-3.7-1.43-5.56-4.28-5.56s-4.42,1.85-4.42,5.56c0,0,0,23.48,0,23.48,0,8.36-17.49,8.36-17.49,0,0,0,0-36.74,0-36.77,0-7.03,16.3-6.23,16.3,0v2.18C19.22,3.24,23.45.84,29.01.84c5.98,0,10.32,2.4,13.02,7.2,3-4.8,7.62-7.2,13.84-7.2,2.98,0,5.59.62,7.86,1.87,2.26,1.25,3.9,2.85,4.92,4.8,1.02,1.96,1.53,4.99,1.53,9.08v26.03c0,3.05-2.38,4.99-5.39,5.81Z"/>
        <path class="cls-1" d="m271.73,7.21c-4.63-4.55-10.75-6.83-18.38-6.83s-13.69,2.31-18.42,6.93c-4.28,4.18-6.62,9.32-7.01,15.41.52-.06,1.03-.1,1.54-.1,2.75,0,6.61.97,9.38,5.62,2.5,4.18,2.68,8.61.5,12.45-.6,1.06-1.37,2.05-2.27,2.96,4.2,3.31,9.49,4.96,15.88,4.96,7.77,0,14-2.31,18.69-6.94,4.69-4.63,7.04-10.4,7.04-17.33s-2.31-12.57-6.94-17.12Zm-11.47,23.82c-1.79,1.76-4.16,2.64-7.13,2.64s-5.25-.91-6.96-2.73c-1.72-1.82-2.59-3.95-2.59-6.41,0-2.63.9-4.83,2.7-6.59,1.8-1.76,4.13-2.63,7.01-2.63s5.23.87,6.99,2.6c1.76,1.74,2.64,3.91,2.64,6.52s-.89,4.83-2.67,6.6Z"/>
        <path class="cls-1" d="m233.91,40.64c-6.37,6.53-22.79,9.47-28.48,9.49-1.84,0-7.44.02-11.51-4.17-4.03-4.14-4.72-10.88-1.68-16.39,2.06-3.72,5.2-6.06,7.49-7.77,1.12-.83,2.66-1.98,3.06-2.7.21-.39-.22-2.02-1.28-2.65-1.6-.94-4.28-.66-6.35.67-3.16,2.02-5.75,6.31-6.33,10-1.24,7.81-4.75,15.77-11.86,19.83-1.12.64-2.3,1.16-3.53,1.53-.36.11-.72.21-1.08.3-.54.14-1.08.28-1.61.39-3.86.83-7.61.92-10.9.93-1.84,0-7.44.02-11.51-4.17-4.03-4.14-4.72-10.88-1.68-16.39,2.06-3.72,5.2-6.06,7.49-7.77,1.12-.83,2.66-1.98,3.06-2.7.21-.39-.22-2.02-1.28-2.65-1.6-.94-4.28-.66-6.36.67-2.4,1.54-4.46,4.45-5.79,8.2-2.2,6.2-2.77,13.23-3.37,20.66-.08.93-.15,1.86-.23,2.79h-15.97c.12-1.35.23-2.7.34-4.07.66-8.13,1.34-16.53,4.23-24.7,2.54-7.17,6.76-12.79,12.22-16.28,7.18-4.59,16.21-4.98,23-.98,8.34,4.91,11.62,15.91,7.15,24.02-.61,1.11-6.76,6.72-5.11,7.46.4.18.87.09,1.28-.05,5.29-1.78,6.02-9.33,7.13-13.92,1.59-6.56,6.49-12.91,12.15-16.53,7.18-4.59,16.21-4.98,23-.98,8.34,4.91,11.62,15.91,7.15,24.02-.99,1.81-2.2,3.56-4.01,4.63-2.33,1.37-1.88,2.71.64,2.08,1.48-.37,2.74-1.34,4.13-1.92,2.67-1.1,5.99-3.24,9.2-4.16.43-.12.87-.23,1.3-.3,2.69-.46,5.21.19,7.1,3.35,2.42,4.05,1.52,7.43-1.17,10.17Z"/>
      </g>
    </g>
  </g>
</svg>