<?xml version="1.0" encoding="UTF-8"?>
<svg id="Layer_2" data-name="Layer 2" xmlns="http://www.w3.org/2000/svg" xmlns:xlink="http://www.w3.org/1999/xlink" viewBox="0 0 496.69 166.36">
  <defs>
    <style>
      .cls-1 {
        fill: none;
      }

      .cls-1, .cls-2, .cls-3, .cls-4 {
        stroke-width: 0px;
      }

      .cls-2 {
        fill: #2d6e54;
      }

      .cls-5 {
        clip-path: url(#clippath);
      }

      .cls-3 {
        fill: #fdc66f;
      }

      .cls-4 {
        fill: #151a17;
      }
    </style>
    <clipPath id="clippath">
      <path class="cls-1" d="m194.55,30.52v84.01h80.4V30.52h-80.4Zm41.11,2.1c-1.18,1.14-2.46,2.29-3.86,3.45-.33.28-.7.56-1.04.85-.48-.06-.97-.11-1.49-.11-1.76,0-3.17.42-4.33,1.29l-.19-.25-.36-.42.52.7c-.3.23-.59.49-.85.79-.16.17-.31.38-.5.65l-1.76-.92c.1-.27.23-.58.4-.86.37-.62.86-.89,1.23-1.09.1-.05.19-.1.28-.16l.02-.02s.06-.05.07-.07c.22-.36.15-1,.08-1.68-.04-.35-.07-.7-.08-1.06.29-.23.58-.47.86-.69.48-.39.95-.78,1.4-1.16,2.07-.21,4.19-.32,6.34-.32,1.21,0,2.29.03,3.33.1.29.02.57.05.85.08-.3.31-.6.61-.92.92Z"/>
    </clipPath>
  </defs>
  <g id="Layer_1-2" data-name="Layer 1">
    <g>
      <path class="cls-2" d="m0,110.18v-1.57l3.13-1.25c2.09-.73,3.47-1.72,4.15-2.98.68-1.25,1.02-2.92,1.02-5.01V17.65c0-2.09-.31-3.76-.94-5.01-.63-1.25-2.04-2.24-4.23-2.97l-3.13-1.25v-1.57h40.24v1.57l-3.13,1.25c-2.09.73-3.47,1.72-4.15,2.97-.68,1.25-1.02,2.92-1.02,5.01v81.73c0,2.09.34,3.73,1.02,4.93.68,1.2,2.06,2.22,4.15,3.05l3.13,1.25v1.57H0Z"/>
      <path class="cls-2" d="m105.92,92.02c-1.35,1.7-2.72,3.2-4.13,4.49,1.25.2,2.5.42,3.75.66.72-1.23,1.37-2.53,1.95-3.9l-1.57-1.25Zm-1.34-32.24c-3.04-4.31-4.57-9.16-4.57-14.5,0-1.95.15-3.86.44-5.71-1.76-1.57-3.85-2.92-6.27-4.07-4.18-1.98-9.29-2.98-15.34-2.98-7.42,0-14.23,1.6-20.44,4.78-6.21,3.18-11.17,7.78-14.87,13.78-3.71,6-5.56,13.23-5.56,21.68s1.7,15.79,5.09,21.68c3.39,5.9,7.99,10.39,13.78,13.47,3.11,1.65,6.4,2.86,9.88,3.62-1.88-1.92-2.26-4.03-2.26-5.4,0-3.85,1.9-6.69,5.67-8.52-1.09-.96-2.08-2.07-2.96-3.32-3.91-5.58-5.87-13.65-5.87-24.19,0-12.11,1.75-20.93,5.25-26.46,3.49-5.53,8.42-8.3,14.79-8.3,1.57,0,2.79.29,3.68.86.88.58,1.54,1.75,1.96,3.53.2,1.67.2,3.31,0,4.93-.21,1.62-.27,3.57-.16,5.87.31,3.55,1.41,6.42,3.29,8.61,1.88,2.19,4.33,3.29,7.36,3.29,2.81,0,5.11-.81,6.88-2.43.08-.07.16-.15.23-.22Z"/>
      <g>
        <path class="cls-2" d="m271.54,103.13h-3.45c-4.38,0-6.57-2.34-6.57-7.04v-34.6c0-10.23-2.53-17.62-7.59-22.16-4.46-3.99-10.54-6.23-18.27-6.71-1.05-.07-2.14-.1-3.26-.1-2.67,0-5.25.16-7.74.48-2.87.36-5.61.94-8.23,1.72-4.91,1.46-8.85,3.65-11.82,6.57-2.07,2.03-3.42,4.4-4.05,7.09-.27,1.17-.41,2.41-.41,3.71s.17,2.4.53,3.42c.43,1.29,1.14,2.39,2.13,3.32,1.77,1.67,4.01,2.5,6.73,2.5,2.92,0,5.37-1.04,7.36-3.13,1.98-2.09,3.08-5.37,3.29-9.86l.31-1.73c.09-.88.21-1.7.36-2.47.5-2.67,1.32-4.64,2.46-5.9,1.46-1.62,3.44-2.43,5.95-2.43.9,0,1.75.09,2.53.26,2.39.54,4.23,1.89,5.53,4.05,1.72,2.87,2.58,7.85,2.58,14.95v12.37c-2.29.42-4.49.81-6.57,1.17-2.09.37-3.97.71-5.64,1.02-10.75,2.09-18.63,5.19-23.64,9.31-5.01,4.13-7.51,8.64-7.51,13.55,0,6.47,2.06,11.43,6.18,14.87,4.12,3.45,9.21,5.17,15.26,5.17,5.22,0,9.48-1.18,12.76-3.53,3.29-2.34,6.5-5.19,9.63-8.53.84,3.55,2.59,6.4,5.25,8.53,2.66,2.14,6.28,3.21,10.88,3.21,4.28,0,7.59-.68,9.94-2.03,2.35-1.36,4.51-3.29,6.5-5.79l-1.41-1.26Zm-31.63-6.26c-2.5,2.09-4.67,3.63-6.49,4.62-1.83.99-3.79,1.49-5.88,1.49-2.81,0-5.22-1.07-7.2-3.21-1.98-2.14-2.97-5.35-2.97-9.63,0-5.01,1.43-9,4.3-11.98,2.87-2.97,6.71-5.09,11.51-6.34,1.36-.21,2.56-.41,3.6-.63,1.04-.2,2.09-.41,3.13-.62v26.3Z"/>
        <path class="cls-3" d="m241.86,7.15c-2.24-2.01-5.12-3.02-8.57-3.02-8.56,0-19.8,5.03-34.37,15.39-13.89,9.87-26.48,23.84-37.44,41.53-8.48,1.85-16.66,2.78-24.34,2.78-10.05,0-17.29-1.75-21.51-5.2-4.1-3.35-6.09-7.06-6.09-11.34,0-6.31,2.87-12.89,8.54-19.55,5.77-6.79,14.26-12.02,25.23-15.54,11.22-3.61,22.31-5.43,32.95-5.43,3.4,0,6.65.14,9.64.44l2.98.29.68-6.77-3.03-.26c-3.69-.31-7.22-.47-10.5-.47-19.59,0-36.86,4.08-51.34,12.11-15.05,8.36-22.68,19.52-22.68,33.17,0,6.86,2.76,12.87,8.19,17.87,5.44,5.01,14.12,7.45,26.54,7.45,6.5,0,13.01-.57,19.44-1.7-12.67,18.33-25.33,29.64-37.69,33.65-11.12-3.57-22.49-5.39-33.81-5.39-4.51,0-18.22,0-18.22,8.97,0,1.97.98,4.67,5.65,6.37,1.79.65,5.51,1.52,17.08,1.52,8.98,0,17.54-1.14,25.48-3.38,8.2,2.6,16.75,3.91,25.43,3.91,18.22,0,33.07-4.83,44.19-14.4-.47-2.32-.74-4.87-.74-7.66,0-.23,0-.46.01-.7l-1.56,1.38c-6.79,5.99-13.38,9.83-19.59,11.4-6.43,1.63-12.47,2.46-17.95,2.46-3.92,0-8.49-.53-13.66-1.57,1.56-.65,3.02-1.34,4.4-2.07,4-2.12,8.27-5.02,12.68-8.61,4.41-3.6,8.24-7.33,11.38-11.1,2.97-3.56,7.57-9.77,13.67-18.46,5.29-1.24,10.54-2.81,15.73-4.71,4.04-1.47,8.05-3.14,12.02-5,6.86-3.22,13.6-7.02,20.18-11.37.03-.03.07-.05.1-.07,4.15-2.76,7.76-5.42,10.84-8,1.4-1.16,2.68-2.31,3.86-3.45,4.35-4.18,7.22-8.14,8.65-11.92.72-1.89,1.08-3.74,1.08-5.54,0-3.18-1.22-5.95-3.53-8.01ZM89.26,107.26c-10.67,0-13.67-.72-14.47-1.03-.36-.15-.64-.28-.85-.39.86-.49,3.31-1.38,9.82-1.38,4.71,0,10.29.76,16.65,2.25-3.36.36-7.08.55-11.15.55ZM224.66,33c-1.59,1.31-3.36,2.68-5.32,4.12-5.72,4.21-11.99,7.97-18.78,11.26-4.24,2.07-8.69,3.95-13.33,5.64-2.95,1.08-5.98,2.08-9.08,3,3.03-4.77,6.59-9.67,10.65-14.64,1.39-1.7,2.85-3.42,4.36-5.14,3.99-4.55,7.92-8.52,11.77-11.91,3.7-3.25,7.31-5.94,10.83-8.08,6.96-4.22,12.85-6.36,17.52-6.36,1.61,0,2.93.43,4.03,1.3,1.16.93,1.31,1.78,1.31,2.42,0,1.3-.39,2.97-1.54,5.08-1.81,3.3-5.47,7.66-12.42,13.31Z"/>
        <g class="cls-5">
          <path class="cls-2" d="m271.54,103.13h-3.45c-4.38,0-6.57-2.34-6.57-7.04v-34.6c0-10.23-2.53-17.62-7.59-22.16-4.46-3.99-10.54-6.23-18.27-6.71-1.05-.07-2.14-.1-3.26-.1-2.67,0-5.25.16-7.74.48-2.87.36-5.61.94-8.23,1.72-4.91,1.46-8.85,3.65-11.82,6.57-2.07,2.03-3.42,4.4-4.05,7.09-.27,1.17-.41,2.41-.41,3.71s.17,2.4.53,3.42c.43,1.29,1.14,2.39,2.13,3.32,1.77,1.67,4.01,2.5,6.73,2.5,2.92,0,5.37-1.04,7.36-3.13,1.98-2.09,3.08-5.37,3.29-9.86l.31-1.73c.09-.88.21-1.7.36-2.47.5-2.67,1.32-4.64,2.46-5.9,1.46-1.62,3.44-2.43,5.95-2.43.9,0,1.75.09,2.53.26,2.39.54,4.23,1.89,5.53,4.05,1.72,2.87,2.58,7.85,2.58,14.95v12.37c-2.29.42-4.49.81-6.57,1.17-2.09.37-3.97.71-5.64,1.02-10.75,2.09-18.63,5.19-23.64,9.31-5.01,4.13-7.51,8.64-7.51,13.55,0,6.47,2.06,11.43,6.18,14.87,4.12,3.45,9.21,5.17,15.26,5.17,5.22,0,9.48-1.18,12.76-3.53,3.29-2.34,6.5-5.19,9.63-8.53.84,3.55,2.59,6.4,5.25,8.53,2.66,2.14,6.28,3.21,10.88,3.21,4.28,0,7.59-.68,9.94-2.03,2.35-1.36,4.51-3.29,6.5-5.79l-1.41-1.26Zm-31.63-6.26c-2.5,2.09-4.67,3.63-6.49,4.62-1.83.99-3.79,1.49-5.88,1.49-2.81,0-5.22-1.07-7.2-3.21-1.98-2.14-2.97-5.35-2.97-9.63,0-5.01,1.43-9,4.3-11.98,2.87-2.97,6.71-5.09,11.51-6.34,1.36-.21,2.56-.41,3.6-.63,1.04-.2,2.09-.41,3.13-.62v26.3Z"/>
        </g>
      </g>
      <path class="cls-2" d="m295.93,112.53c-5.11,0-9.71-.6-13.78-1.8-4.07-1.2-7.83-2.69-11.27-4.46l.16-18.63h1.57l5.32,9.39c2.29,4.18,4.83,7.28,7.59,9.32,2.76,2.04,6.29,3.05,10.57,3.05,5.01,0,9.05-1.12,12.13-3.37,3.08-2.24,4.62-5.24,4.62-9,0-3.44-1.1-6.26-3.29-8.45-2.19-2.19-6.26-4.17-12.21-5.95l-6.58-2.04c-6.37-1.88-11.38-4.8-15.03-8.77-3.65-3.97-5.48-8.82-5.48-14.56,0-6.89,2.71-12.73,8.14-17.53,5.43-4.8,13.2-7.2,23.33-7.2,4.07,0,7.91.45,11.51,1.33,3.6.89,7.07,2.22,10.41,3.99l-.94,16.91h-1.57l-5.48-9.71c-1.98-3.44-3.94-5.87-5.87-7.28-1.93-1.41-4.83-2.11-8.69-2.11-3.55,0-6.89.99-10.02,2.97-3.13,1.98-4.7,4.8-4.7,8.45s1.33,6.37,3.99,8.45c2.66,2.09,6.6,4.02,11.82,5.79l7.05,2.04c7.51,2.3,12.89,5.46,16.13,9.47,3.23,4.02,4.85,8.85,4.85,14.48,0,7.62-3,13.73-9,18.32-6,4.59-14.43,6.89-25.28,6.89Z"/>
      <path class="cls-2" d="m356.79,112.53c-5.11,0-9.71-.6-13.78-1.8-4.07-1.2-7.83-2.69-11.27-4.46l.16-18.63h1.57l5.32,9.39c2.29,4.18,4.83,7.28,7.59,9.32,2.76,2.04,6.29,3.05,10.57,3.05,5.01,0,9.05-1.12,12.13-3.37,3.08-2.24,4.62-5.24,4.62-9,0-3.44-1.1-6.26-3.29-8.45-2.19-2.19-6.26-4.17-12.21-5.95l-6.58-2.04c-6.37-1.88-11.38-4.8-15.03-8.77-3.65-3.97-5.48-8.82-5.48-14.56,0-6.89,2.71-12.73,8.14-17.53,5.43-4.8,13.2-7.2,23.33-7.2,4.07,0,7.91.45,11.51,1.33,3.6.89,7.07,2.22,10.41,3.99l-.94,16.91h-1.57l-5.48-9.71c-1.98-3.44-3.94-5.87-5.87-7.28-1.93-1.41-4.83-2.11-8.69-2.11-3.55,0-6.89.99-10.02,2.97-3.13,1.98-4.7,4.8-4.7,8.45s1.33,6.37,3.99,8.45c2.66,2.09,6.6,4.02,11.82,5.79l7.05,2.04c7.51,2.3,12.89,5.46,16.13,9.47,3.23,4.02,4.85,8.85,4.85,14.48,0,7.62-3,13.73-9,18.32-6,4.59-14.43,6.89-25.28,6.89Z"/>
      <path class="cls-2" d="m390.42,110.18v-1.57l2.19-.63c2.09-.63,3.52-1.57,4.31-2.82.78-1.25,1.17-2.92,1.17-5.01v-49c0-2.19-.39-3.84-1.17-4.93-.78-1.1-2.22-1.85-4.31-2.27l-2.19-.47v-1.57l28.65-9.24,1.57,1.57-.47,22.23v43.84c0,2.09.39,3.76,1.17,5.01s2.17,2.19,4.15,2.82l1.57.47v1.57h-36.64Zm18.47-85.8c-3.55,0-6.55-1.12-9-3.37-2.45-2.24-3.68-5.09-3.68-8.53s1.23-6.42,3.68-8.61c2.45-2.19,5.45-3.29,9-3.29s6.52,1.1,8.92,3.29c2.4,2.19,3.6,5.06,3.6,8.61s-1.2,6.29-3.6,8.53c-2.4,2.25-5.38,3.37-8.92,3.37Z"/>
      <path class="cls-2" d="m465.38,112.53c-7.1,0-13.54-1.54-19.34-4.62-5.79-3.08-10.39-7.57-13.78-13.46-3.39-5.9-5.09-13.12-5.09-21.68s1.85-15.68,5.56-21.68c3.7-6,8.66-10.59,14.87-13.78,6.21-3.18,13.02-4.78,20.43-4.78,6.05,0,11.17.99,15.34,2.97,4.17,1.98,7.36,4.57,9.55,7.75,2.19,3.19,3.29,6.5,3.29,9.94,0,2.92-.89,5.19-2.66,6.81-1.78,1.62-4.07,2.43-6.89,2.43-3.03,0-5.48-1.1-7.36-3.29s-2.97-5.06-3.29-8.61c-.11-2.29-.05-4.25.16-5.87.21-1.62.21-3.26,0-4.93-.42-1.77-1.07-2.95-1.96-3.52-.89-.57-2.11-.86-3.68-.86-6.37,0-11.3,2.77-14.79,8.3-3.5,5.53-5.25,14.35-5.25,26.46,0,10.54,1.96,18.61,5.87,24.19,3.91,5.58,9.94,8.38,18.08,8.38,4.9,0,8.87-.89,11.9-2.66,3.03-1.77,5.95-4.44,8.77-7.98l1.57,1.25c-2.61,6.16-6.63,10.91-12.06,14.25-5.43,3.34-11.85,5.01-19.26,5.01Z"/>
      <g>
        <path class="cls-4" d="m5.86,166.05v-35.98h14.65c3.84,0,7.2.76,10.1,2.29,2.9,1.53,5.15,3.64,6.76,6.35,1.61,2.71,2.42,5.83,2.42,9.36s-.81,6.65-2.42,9.36c-1.61,2.71-3.86,4.82-6.76,6.35-2.9,1.53-6.26,2.29-10.1,2.29H5.86Zm3.8-3.29h10.64c3.19,0,5.95-.62,8.3-1.88,2.35-1.25,4.17-2.98,5.47-5.19,1.3-2.21,1.95-4.75,1.95-7.63s-.65-5.47-1.95-7.66c-1.3-2.19-3.13-3.92-5.47-5.17-2.35-1.25-5.11-1.88-8.3-1.88h-10.64v29.4Z"/>
        <path class="cls-4" d="m93.25,162.76h21.64v3.29h-25.45v-35.98h24.67v3.29h-20.87v29.4Zm-.41-16.6h19.02v3.24h-19.02v-3.24Z"/>
        <path class="cls-4" d="m174.88,166.36c-2.67,0-5.24-.44-7.69-1.31-2.45-.87-4.34-2-5.68-3.37l1.49-2.93c1.27,1.23,2.97,2.27,5.11,3.11,2.14.84,4.4,1.26,6.76,1.26s4.1-.28,5.53-.85c1.42-.57,2.47-1.33,3.14-2.29.67-.96,1-2.02,1-3.19,0-1.4-.4-2.54-1.21-3.39-.81-.86-1.86-1.53-3.16-2.03-1.3-.5-2.74-.93-4.32-1.31-1.58-.38-3.15-.78-4.73-1.21-1.58-.43-3.02-1-4.34-1.72-1.32-.72-2.38-1.67-3.19-2.85-.81-1.18-1.21-2.73-1.21-4.65,0-1.78.47-3.42,1.41-4.91.94-1.49,2.39-2.69,4.34-3.6,1.95-.91,4.45-1.36,7.5-1.36,2.02,0,4.03.28,6.01.85,1.99.57,3.7,1.35,5.14,2.34l-1.29,3.03c-1.54-1.03-3.18-1.78-4.91-2.26-1.73-.48-3.4-.72-5.01-.72-2.16,0-3.94.29-5.35.87-1.41.58-2.44,1.36-3.11,2.34-.67.98-1,2.08-1,3.32,0,1.41.4,2.54,1.21,3.39.8.86,1.87,1.53,3.19,2,1.32.48,2.77.91,4.34,1.29,1.58.38,3.14.79,4.7,1.23,1.56.45,3,1.02,4.32,1.72,1.32.7,2.38,1.64,3.19,2.8.8,1.17,1.21,2.69,1.21,4.58,0,1.75-.48,3.37-1.44,4.86-.96,1.49-2.42,2.69-4.4,3.6-1.97.91-4.5,1.36-7.58,1.36Z"/>
        <path class="cls-4" d="m237.69,166.05v-35.98h3.8v35.98h-3.8Z"/>
        <path class="cls-4" d="m310.12,166.36c-2.74,0-5.27-.45-7.58-1.36-2.31-.91-4.32-2.18-6.01-3.83-1.7-1.65-3.02-3.58-3.96-5.81-.94-2.23-1.41-4.66-1.41-7.3s.47-5.07,1.41-7.3c.94-2.23,2.27-4.16,3.98-5.81,1.71-1.65,3.73-2.92,6.04-3.83,2.31-.91,4.84-1.36,7.58-1.36s5.25.43,7.53,1.29c2.28.86,4.22,2.16,5.83,3.91l-2.36,2.42c-1.51-1.51-3.17-2.59-4.99-3.24-1.82-.65-3.77-.98-5.86-.98-2.23,0-4.28.37-6.14,1.1-1.87.74-3.5,1.78-4.88,3.14-1.39,1.35-2.47,2.93-3.24,4.73-.77,1.8-1.16,3.78-1.16,5.94s.39,4.1,1.16,5.91c.77,1.82,1.85,3.4,3.24,4.75,1.39,1.35,3.02,2.4,4.88,3.14,1.87.74,3.9,1.11,6.09,1.11,2.06,0,4-.31,5.83-.93,1.83-.62,3.52-1.66,5.06-3.14l2.16,2.88c-1.71,1.51-3.72,2.65-6.01,3.42-2.3.77-4.7,1.16-7.2,1.16Zm9.56-5.04v-13.26h3.65v13.72l-3.65-.46Z"/>
        <path class="cls-4" d="m375.2,166.05v-35.98h3.14l24.83,31.25h-1.65v-31.25h3.75v35.98h-3.14l-24.78-31.25h1.65v31.25h-3.8Z"/>
        <path class="cls-4" d="m468.04,166.36c-2.67,0-5.24-.44-7.69-1.31-2.45-.87-4.34-2-5.68-3.37l1.49-2.93c1.27,1.23,2.97,2.27,5.11,3.11,2.14.84,4.4,1.26,6.76,1.26s4.1-.28,5.53-.85c1.42-.57,2.47-1.33,3.14-2.29.67-.96,1-2.02,1-3.19,0-1.4-.4-2.54-1.21-3.39-.81-.86-1.86-1.53-3.16-2.03-1.3-.5-2.74-.93-4.32-1.31-1.58-.38-3.15-.78-4.73-1.21-1.58-.43-3.02-1-4.34-1.72-1.32-.72-2.38-1.67-3.19-2.85-.81-1.18-1.21-2.73-1.21-4.65,0-1.78.47-3.42,1.41-4.91.94-1.49,2.39-2.69,4.34-3.6,1.95-.91,4.45-1.36,7.5-1.36,2.02,0,4.03.28,6.01.85,1.99.57,3.7,1.35,5.14,2.34l-1.29,3.03c-1.54-1.03-3.18-1.78-4.91-2.26-1.73-.48-3.4-.72-5.01-.72-2.16,0-3.94.29-5.35.87-1.41.58-2.44,1.36-3.11,2.34-.67.98-1,2.08-1,3.32,0,1.41.4,2.54,1.21,3.39.8.86,1.87,1.53,3.19,2,1.32.48,2.77.91,4.34,1.29,1.58.38,3.14.79,4.7,1.23,1.56.45,3,1.02,4.32,1.72,1.32.7,2.38,1.64,3.19,2.8.8,1.17,1.21,2.69,1.21,4.58,0,1.75-.48,3.37-1.44,4.86-.96,1.49-2.42,2.69-4.4,3.6-1.97.91-4.5,1.36-7.58,1.36Z"/>
      </g>
    </g>
  </g>
</svg>