<?xml version="1.0" encoding="UTF-8"?>
<svg id="Layer_2" data-name="Layer 2" xmlns="http://www.w3.org/2000/svg" viewBox="0 0 308.62 308.62">
  <defs>
    <style>
      .cls-1 {
        fill: #2d6e54;
        stroke-width: 0px;
      }
    </style>
  </defs>
  <g id="Layer_1-2" data-name="Layer 1">
    <g>
      <path class="cls-1" d="m76.79,200.23c.2.1.46.23.8.37.76.29,3.59.97,13.68.97,3.85,0,7.37-.18,10.54-.52-6.01-1.41-11.29-2.13-15.74-2.13-6.16,0-8.47.84-9.29,1.3Z"/>
      <path class="cls-1" d="m231.26,111.68c-1.04-.82-2.29-1.23-3.81-1.23-4.42,0-9.98,2.02-16.57,6.01-3.33,2.02-6.74,4.57-10.24,7.64-3.64,3.21-7.36,6.96-11.13,11.26-1.43,1.63-2.81,3.25-4.12,4.86-.48.59-.94,1.18-1.41,1.77,20.02-8.51,35.97-17.64,48.39-26.83.07-.43.12-.83.12-1.2,0-.61-.14-1.41-1.24-2.29Z"/>
      <path class="cls-1" d="m136.17,166.91c-3.85,0-7.32-.25-10.42-.75-20.27,8.53-36.42,17.7-49,26.92,3.77-1.06,8.07-1.06,10.2-1.06,10.7,0,21.45,1.72,31.97,5.1,11.69-3.79,23.66-14.49,35.64-31.82-6.08,1.07-12.23,1.61-18.38,1.61Z"/>
      <path class="cls-1" d="m134.71,197.91c-1.31.69-2.69,1.34-4.16,1.96,1.32.26,2.58.49,3.81.68.56-1.11,1.11-2.24,1.66-3.39-.44.25-.88.52-1.32.75Z"/>
      <path class="cls-1" d="m173.22,106.56c-9.96.04-20.34,1.75-30.84,5.13-1.61.52-3.14,1.09-4.64,1.68,1.64,4.56,3.44,9.26,5.45,14.1-2-4.84-4.05-9.44-6.12-13.82-7.82,3.2-14.07,7.46-18.55,12.74-2.87,3.37-4.96,6.72-6.3,10.02,4.81,2.3,9.88,4.57,15.24,6.79-5.35-2.22-10.54-4.2-15.56-5.97-.95,2.58-1.46,5.14-1.46,7.65,0,4.05,1.88,7.55,5.76,10.72,3.99,3.26,10.84,4.92,20.34,4.92,7.26,0,15-.88,23.01-2.63,10.36-16.73,22.27-29.93,35.4-39.27,13.78-9.8,24.4-14.55,32.5-14.55,3.26,0,5.99.95,8.1,2.85,1.19,1.06,2.07,2.33,2.62,3.75,80.36-65.36-12.59-128.46-72.76,16.81,3.02-7.28,5.6-14.25,7.79-20.91Z"/>
      <path class="cls-1" d="m233.04,127.46c-.99,1.16-2.09,2.34-3.34,3.54-1.12,1.08-2.33,2.17-3.65,3.26-2.91,2.44-6.33,4.95-10.25,7.56-.03.02-.07.04-.09.07-6.22,4.11-12.59,7.71-19.08,10.75-3.75,1.76-7.55,3.34-11.37,4.73-4.91,1.8-9.87,3.28-14.87,4.45-5.77,8.22-10.12,14.09-12.92,17.45-2.97,3.56-6.59,7.09-10.76,10.49-3.23,2.63-6.37,4.85-9.38,6.66-.52,1.46-1.01,2.9-1.49,4.32,2.77.38,5.34.6,7.64.6,5.18,0,10.89-.78,16.97-2.33,3.28-.83,6.68-2.37,10.16-4.53-1.57-4.33-3.28-8.78-5.18-13.35,70.4,169.97,185.69,54.68,15.72-15.72,9.96,4.13,19.33,7.44,28.12,10.06,1.63-1.3,3.26-2.68,4.88-4.22,2.51-2.37,4.77-5.43,6.79-9.1.85.75,1.82,1.29,2.85,1.75.4.38.84.7,1.32.97.37.29.75.55,1.17.76-2.49,4.27-5.67,8.25-9.47,11.94,116.73,30.54,122.14-68.65,16.22-50.13Z"/>
      <path class="cls-1" d="m183.91,151.23c4.39-1.6,8.59-3.38,12.6-5.33,6.42-3.11,12.35-6.67,17.76-10.65,1.85-1.36,3.53-2.66,5.03-3.9.58-.47,1.11-.92,1.64-1.37-11.25,2.71-23.59,6.66-37,12.07-3.23,4.07-6.12,8.09-8.61,12.01,2.93-.87,5.8-1.82,8.58-2.84Z"/>
      <path class="cls-1" d="m115.3,204.76c-7.51,2.12-15.6,3.2-24.09,3.2-10.94,0-14.46-.82-16.15-1.44-4.42-1.61-5.34-4.16-5.34-6.02,0-.86.16-1.6.4-2.3-74.37,60.82,1.12,119.44,60.39,9.77-5.17-.57-10.26-1.64-15.21-3.21Z"/>
      <path class="cls-1" d="m173.32,100.15c.62,0,1.27.02,1.91.04,40.91-135.71-86.03-133.55-39.8,6.46,11.26-4.31,23.95-6.5,37.89-6.5Z"/>
      <path class="cls-1" d="m139.35,208.46c-1.98,0-3.95-.08-5.91-.22-41.21,136.34,86.84,133.79,39.29-7.66-9.23,5.19-20.37,7.87-33.39,7.87Z"/>
      <path class="cls-1" d="m105,132.81c2.88-8.38,9.48-15.49,19.77-21.21,2.94-1.63,6-3.07,9.18-4.36-66.97-132.98-159.39-41.68-28.95,25.57Z"/>
      <path class="cls-1" d="m125.7,166.14c-6.34-1.03-11.18-3.11-14.62-6.28-5.13-4.73-7.74-10.41-7.74-16.9,0-2.88.38-5.63,1.09-8.27-146-46.79-138.91,96.72,21.27,31.45Z"/>
    </g>
  </g>
</svg>