<?xml version="1.0" encoding="UTF-8"?>
<svg id="Layer_2" data-name="Layer 2" xmlns="http://www.w3.org/2000/svg" xmlns:xlink="http://www.w3.org/1999/xlink" viewBox="0 0 369.07 126.2">
  <defs>
    <style>
      .cls-1, .cls-2, .cls-3 {
        stroke-width: 0px;
      }

      .cls-1, .cls-4 {
        fill: #fff6f0;
      }

      .cls-2 {
        fill: none;
      }

      .cls-5 {
        clip-path: url(#clippath);
      }

      .cls-3 {
        fill: #fdc66f;
      }

      .cls-4 {
        font-family: Montserrat-Regular, Montserrat;
        font-size: 36.14px;
        letter-spacing: .8em;
      }
    </style>
    <clipPath id="clippath">
      <path class="cls-2" d="m136.17,20.86v60.25h57.71V20.86h-57.71Zm29.49,2.07c-.83.8-1.73,1.61-2.71,2.43-.34.28-.7.57-1.05.85-.24-.02-.48-.04-.72-.04-1.48,0-2.6.45-3.44,1.38-.12.14-.23.3-.34.46l-1.77-.92c.1-.25.2-.49.32-.69.3-.5.71-.73.98-.88.06-.03.15-.08.17-.1.08-.14.03-.6,0-.97-.02-.18-.04-.36-.05-.56.3-.24.61-.48.89-.71.48-.39.91-.76,1.35-1.13,1.35-.13,2.72-.21,4.1-.21.84,0,1.63.02,2.36.07.29.02.57.05.86.08-.3.3-.6.61-.92.92Z"/>
    </clipPath>
  </defs>
  <g id="Layer_1-2" data-name="Layer 1">
    <g>
      <path class="cls-1" d="m0,77.45v-1.1l2.2-.88c1.47-.51,2.44-1.21,2.92-2.09.48-.88.72-2.05.72-3.52V12.41c0-1.47-.22-2.64-.66-3.52s-1.43-1.58-2.97-2.09l-2.2-.88v-1.1h28.29v1.1l-2.2.88c-1.47.51-2.44,1.21-2.92,2.09-.48.88-.72,2.06-.72,3.52v57.45c0,1.47.24,2.62.72,3.47.48.84,1.45,1.56,2.92,2.15l2.2.88v1.1H0Z"/>
      <path class="cls-1" d="m74.46,64.69c-.95,1.2-1.91,2.25-2.9,3.16.88.14,1.76.3,2.64.46.51-.86.96-1.78,1.37-2.74l-1.1-.88Zm-.94-22.66c-2.14-3.03-3.21-6.44-3.21-10.19,0-1.37.11-2.71.31-4.01-1.24-1.1-2.71-2.05-4.41-2.86-2.94-1.39-6.53-2.09-10.78-2.09-5.22,0-10,1.12-14.37,3.36-4.37,2.24-7.85,5.47-10.45,9.69-2.61,4.22-3.91,9.3-3.91,15.24s1.19,11.1,3.58,15.24c2.38,4.15,5.62,7.3,9.69,9.47,2.19,1.16,4.5,2.01,6.95,2.54-1.32-1.35-1.59-2.83-1.59-3.8,0-2.71,1.34-4.7,3.99-5.99-.77-.67-1.46-1.46-2.08-2.33-2.75-3.92-4.13-9.6-4.13-17.01,0-8.51,1.23-14.71,3.69-18.6,2.45-3.89,5.92-5.83,10.4-5.83,1.1,0,1.96.2,2.59.6.62.41,1.08,1.23,1.38,2.48.14,1.17.14,2.33,0,3.47-.15,1.14-.19,2.51-.11,4.13.22,2.5.99,4.51,2.31,6.05,1.32,1.54,3.04,2.31,5.17,2.31,1.98,0,3.59-.57,4.84-1.71.06-.05.11-.11.16-.15Z"/>
      <g>
        <path class="cls-1" d="m190.89,72.5h-2.43c-3.08,0-4.62-1.65-4.62-4.95v-24.32c0-7.19-1.78-12.39-5.34-15.58-3.14-2.8-7.41-4.38-12.84-4.72-.74-.05-1.5-.07-2.29-.07-1.88,0-3.69.11-5.44.34-2.02.25-3.94.66-5.79,1.21-3.45,1.03-6.22,2.57-8.31,4.62-1.46,1.43-2.4,3.09-2.85,4.98-.19.82-.29,1.69-.29,2.61s.12,1.69.37,2.4c.3.91.8,1.68,1.5,2.33,1.24,1.17,2.82,1.76,4.73,1.76,2.05,0,3.78-.73,5.17-2.2,1.39-1.47,2.17-3.77,2.31-6.93l.22-1.22c.06-.62.15-1.2.25-1.74.35-1.88.93-3.26,1.73-4.15,1.03-1.14,2.42-1.71,4.18-1.71.63,0,1.23.06,1.78.18,1.68.38,2.97,1.33,3.89,2.85,1.21,2.02,1.81,5.52,1.81,10.51v8.7c-1.61.3-3.16.57-4.62.82-1.47.26-2.79.5-3.96.72-7.56,1.47-13.1,3.65-16.62,6.54-3.52,2.9-5.28,6.07-5.28,9.53,0,4.55,1.45,8.04,4.34,10.45,2.9,2.43,6.47,3.63,10.73,3.63,3.67,0,6.66-.83,8.97-2.48,2.31-1.64,4.57-3.65,6.77-6,.59,2.5,1.82,4.5,3.69,6,1.87,1.5,4.41,2.26,7.65,2.26,3.01,0,5.34-.48,6.99-1.43,1.65-.96,3.17-2.31,4.57-4.07l-.99-.89Zm-22.24-4.4c-1.76,1.47-3.28,2.55-4.56,3.25-1.29.7-2.66,1.05-4.13,1.05-1.98,0-3.67-.75-5.06-2.26-1.39-1.5-2.09-3.76-2.09-6.77,0-3.52,1.01-6.33,3.02-8.42,2.02-2.09,4.72-3.58,8.09-4.46.96-.15,1.8-.29,2.53-.44.73-.14,1.47-.29,2.2-.44v18.49Z"/>
        <path class="cls-3" d="m170.03,5.03c-1.57-1.41-3.6-2.12-6.02-2.12-6.02,0-13.92,3.54-24.16,10.82-9.76,6.94-18.62,16.76-26.32,29.2-5.96,1.3-11.71,1.95-17.11,1.95-7.07,0-12.15-1.23-15.12-3.66-2.88-2.36-4.28-4.96-4.28-7.97,0-4.44,2.02-9.06,6-13.74,4.06-4.77,10.02-8.45,17.74-10.92,7.89-2.54,15.68-3.82,23.16-3.82,2.39,0,4.67.1,6.78.31l2.09.2.48-4.76-2.13-.18c-2.59-.22-5.08-.33-7.38-.33-13.77,0-25.91,2.87-36.09,8.51-10.58,5.88-15.94,13.72-15.94,23.32,0,4.82,1.94,9.05,5.76,12.56,3.82,3.52,9.93,5.24,18.66,5.24,4.57,0,9.15-.4,13.67-1.2-8.91,12.89-17.81,20.84-26.5,23.66-7.82-2.51-15.81-3.79-23.77-3.79-3.17,0-12.81,0-12.81,6.31,0,1.38.69,3.28,3.97,4.48,1.26.46,3.87,1.07,12.01,1.07,6.31,0,12.33-.8,17.91-2.38,5.76,1.83,11.78,2.75,17.88,2.75,12.81,0,23.25-3.4,31.07-10.12-.33-1.63-.52-3.42-.52-5.38,0-.16,0-.32,0-.49l-1.1.97c-4.77,4.21-9.41,6.91-13.77,8.01-4.52,1.15-8.77,1.73-12.62,1.73-2.76,0-5.97-.37-9.6-1.1,1.1-.46,2.12-.94,3.09-1.46,2.81-1.49,5.81-3.53,8.91-6.05,3.1-2.53,5.79-5.15,8-7.8,2.09-2.5,5.32-6.87,9.61-12.98,3.72-.87,7.41-1.98,11.06-3.31,2.84-1.03,5.66-2.21,8.45-3.51,4.82-2.26,9.56-4.94,14.19-7.99.02-.02.05-.04.07-.05,2.92-1.94,5.46-3.81,7.62-5.62.98-.82,1.88-1.62,2.71-2.43,3.06-2.94,5.08-5.72,6.08-8.38.51-1.33.76-2.63.76-3.89,0-2.24-.86-4.18-2.48-5.63ZM62.75,75.4c-7.5,0-9.61-.51-10.17-.72-.25-.11-.45-.2-.6-.27.6-.34,2.33-.97,6.9-.97,3.31,0,7.23.53,11.7,1.58-2.36.25-4.98.39-7.84.39Zm95.18-52.2c-1.12.92-2.36,1.88-3.74,2.9-4.02,2.96-8.43,5.6-13.2,7.92-2.98,1.46-6.11,2.78-9.37,3.96-2.07.76-4.2,1.46-6.38,2.11,2.13-3.35,4.63-6.8,7.49-10.29.98-1.2,2-2.4,3.07-3.61,2.8-3.2,5.57-5.99,8.27-8.37,2.6-2.28,5.14-4.18,7.61-5.68,4.89-2.97,9.03-4.47,12.32-4.47,1.13,0,2.06.3,2.83.91.82.65.92,1.25.92,1.7,0,.91-.27,2.09-1.08,3.57-1.27,2.32-3.85,5.39-8.73,9.36Z"/>
        <g class="cls-5">
          <path class="cls-1" d="m190.89,72.5h-2.43c-3.08,0-4.62-1.65-4.62-4.95v-24.32c0-7.19-1.78-12.39-5.34-15.58-3.14-2.8-7.41-4.38-12.84-4.72-.74-.05-1.5-.07-2.29-.07-1.88,0-3.69.11-5.44.34-2.02.25-3.94.66-5.79,1.21-3.45,1.03-6.22,2.57-8.31,4.62-1.46,1.43-2.4,3.09-2.85,4.98-.19.82-.29,1.69-.29,2.61s.12,1.69.37,2.4c.3.91.8,1.68,1.5,2.33,1.24,1.17,2.82,1.76,4.73,1.76,2.05,0,3.78-.73,5.17-2.2,1.39-1.47,2.17-3.77,2.31-6.93l.22-1.22c.06-.62.15-1.2.25-1.74.35-1.88.93-3.26,1.73-4.15,1.03-1.14,2.42-1.71,4.18-1.71.63,0,1.23.06,1.78.18,1.68.38,2.97,1.33,3.89,2.85,1.21,2.02,1.81,5.52,1.81,10.51v8.7c-1.61.3-3.16.57-4.62.82-1.47.26-2.79.5-3.96.72-7.56,1.47-13.1,3.65-16.62,6.54-3.52,2.9-5.28,6.07-5.28,9.53,0,4.55,1.45,8.04,4.34,10.45,2.9,2.43,6.47,3.63,10.73,3.63,3.67,0,6.66-.83,8.97-2.48,2.31-1.64,4.57-3.65,6.77-6,.59,2.5,1.82,4.5,3.69,6,1.87,1.5,4.41,2.26,7.65,2.26,3.01,0,5.34-.48,6.99-1.43,1.65-.96,3.17-2.31,4.57-4.07l-.99-.89Zm-22.24-4.4c-1.76,1.47-3.28,2.55-4.56,3.25-1.29.7-2.66,1.05-4.13,1.05-1.98,0-3.67-.75-5.06-2.26-1.39-1.5-2.09-3.76-2.09-6.77,0-3.52,1.01-6.33,3.02-8.42,2.02-2.09,4.72-3.58,8.09-4.46.96-.15,1.8-.29,2.53-.44.73-.14,1.47-.29,2.2-.44v18.49Z"/>
        </g>
      </g>
      <path class="cls-1" d="m208.04,79.11c-3.6,0-6.82-.42-9.69-1.27s-5.5-1.89-7.92-3.14l.11-13.1h1.1l3.74,6.6c1.61,2.94,3.39,5.12,5.34,6.55,1.94,1.43,4.42,2.15,7.43,2.15,3.52,0,6.36-.79,8.53-2.37,2.16-1.58,3.25-3.69,3.25-6.33,0-2.42-.77-4.4-2.31-5.94-1.54-1.54-4.4-2.93-8.58-4.18l-4.62-1.43c-4.48-1.32-8-3.37-10.57-6.16-2.57-2.79-3.85-6.2-3.85-10.24,0-4.84,1.91-8.95,5.72-12.33,3.81-3.37,9.28-5.06,16.4-5.06,2.86,0,5.56.31,8.09.94,2.53.62,4.97,1.56,7.32,2.81l-.66,11.89h-1.1l-3.85-6.82c-1.39-2.42-2.77-4.13-4.13-5.12-1.36-.99-3.39-1.49-6.11-1.49-2.5,0-4.84.7-7.04,2.09-2.2,1.39-3.3,3.38-3.3,5.94s.94,4.48,2.81,5.94c1.87,1.47,4.64,2.83,8.31,4.07l4.95,1.43c5.28,1.61,9.06,3.83,11.34,6.66,2.27,2.83,3.41,6.22,3.41,10.18,0,5.36-2.11,9.65-6.33,12.88-4.22,3.23-10.14,4.84-17.78,4.84Z"/>
      <path class="cls-1" d="m250.82,79.11c-3.6,0-6.82-.42-9.69-1.27s-5.5-1.89-7.92-3.14l.11-13.1h1.1l3.74,6.6c1.61,2.94,3.39,5.12,5.34,6.55,1.94,1.43,4.42,2.15,7.43,2.15,3.52,0,6.36-.79,8.53-2.37,2.16-1.58,3.25-3.69,3.25-6.33,0-2.42-.77-4.4-2.31-5.94-1.54-1.54-4.4-2.93-8.58-4.18l-4.62-1.43c-4.48-1.32-8-3.37-10.57-6.16-2.57-2.79-3.85-6.2-3.85-10.24,0-4.84,1.91-8.95,5.72-12.33,3.81-3.37,9.28-5.06,16.4-5.06,2.86,0,5.56.31,8.09.94,2.53.62,4.97,1.56,7.32,2.81l-.66,11.89h-1.1l-3.85-6.82c-1.39-2.42-2.77-4.13-4.13-5.12-1.36-.99-3.39-1.49-6.11-1.49-2.5,0-4.84.7-7.04,2.09-2.2,1.39-3.3,3.38-3.3,5.94s.94,4.48,2.81,5.94c1.87,1.47,4.64,2.83,8.31,4.07l4.95,1.43c5.28,1.61,9.06,3.83,11.34,6.66,2.27,2.83,3.41,6.22,3.41,10.18,0,5.36-2.11,9.65-6.33,12.88-4.22,3.23-10.14,4.84-17.78,4.84Z"/>
      <path class="cls-1" d="m274.46,77.45v-1.1l1.54-.44c1.47-.44,2.48-1.1,3.03-1.98.55-.88.83-2.05.83-3.52v-34.45c0-1.54-.28-2.7-.83-3.47-.55-.77-1.56-1.3-3.03-1.6l-1.54-.33v-1.1l20.14-6.49,1.1,1.1-.33,15.63v30.82c0,1.47.28,2.64.83,3.52s1.52,1.54,2.92,1.98l1.1.33v1.1h-25.75Zm12.99-60.31c-2.5,0-4.61-.79-6.33-2.37-1.72-1.58-2.59-3.58-2.59-6s.86-4.51,2.59-6.05c1.72-1.54,3.83-2.31,6.33-2.31s4.58.77,6.27,2.31c1.69,1.54,2.53,3.56,2.53,6.05s-.84,4.42-2.53,6c-1.69,1.58-3.78,2.37-6.27,2.37Z"/>
      <path class="cls-1" d="m327.16,79.11c-4.99,0-9.52-1.08-13.59-3.25-4.07-2.16-7.3-5.32-9.69-9.47-2.39-4.14-3.58-9.23-3.58-15.24s1.3-11.02,3.91-15.24c2.6-4.22,6.09-7.45,10.46-9.69,4.36-2.24,9.15-3.36,14.36-3.36,4.25,0,7.85.7,10.79,2.09,2.93,1.39,5.17,3.21,6.71,5.45,1.54,2.24,2.31,4.57,2.31,6.99,0,2.06-.62,3.65-1.87,4.79-1.25,1.14-2.86,1.71-4.84,1.71-2.13,0-3.85-.77-5.17-2.31-1.32-1.54-2.09-3.56-2.31-6.05-.07-1.61-.04-2.99.11-4.13.15-1.14.15-2.29,0-3.47-.29-1.25-.75-2.07-1.38-2.48-.62-.4-1.49-.61-2.59-.61-4.48,0-7.94,1.94-10.4,5.83-2.46,3.89-3.69,10.09-3.69,18.6,0,7.41,1.38,13.08,4.13,17,2.75,3.93,6.99,5.89,12.71,5.89,3.45,0,6.24-.62,8.36-1.87,2.13-1.25,4.18-3.12,6.16-5.61l1.1.88c-1.84,4.33-4.66,7.67-8.47,10.02-3.82,2.35-8.33,3.52-13.54,3.52Z"/>
      <text class="cls-4" transform="translate(0 116.74)"><tspan x="0" y="0">DESIGNS</tspan></text>
    </g>
  </g>
</svg>