<?xml version="1.0" encoding="UTF-8"?>
<svg id="Layer_2" data-name="Layer 2" xmlns="http://www.w3.org/2000/svg" viewBox="0 0 854.99 413.35">
  <defs>
    <style>
      .cls-1 {
        fill: #3a281f;
      }

      .cls-1, .cls-2, .cls-3 {
        stroke-width: 0px;
      }

      .cls-2 {
        fill: #231f20;
      }

      .cls-3 {
        fill: #faaf40;
      }
    </style>
  </defs>
  <g id="Layer_1-2" data-name="Layer 1">
    <g>
      <g>
        <path class="cls-1" d="m133.34,261.72c0,3.12.17,6.18.5,9.2v-18.37c-.32,3.02-.5,6.07-.5,9.18Z"/>
        <path class="cls-1" d="m268.8,208.83c-.32-.32-.62-.62-.95-.93-8.25-8.01-17.53-13.78-27.74-17.3,2.74-2.35,5.36-4.85,7.93-7.52,7.15-7.47,13.1-15.62,17.77-24.27,8.46-15.59,12.84-32.93,12.84-51.24,0-28.86-10.96-55.09-31.73-75.86C226.18,10.98,199.68,0,170.31,0s-55.8,10.94-76.63,31.62c-20.91,20.76-31.96,46.97-31.96,75.84s10.73,54.64,30.99,75.64c8.46,8.74,17.86,15.83,28,21.13,10.79,5.64,22.44,9.28,34.72,10.86-6.4,7.75-10.96,16.24-13.7,25.41-2,6.72-2.99,13.81-2.99,21.22,0,20.22,7.39,38.12,21.95,53.2,14.69,15.25,32.59,22.96,53.2,22.96h2.3c20.78,0,38.7-7.69,53.24-22.87,14.34-14.99,21.65-32.87,21.65-53.16s-7.5-38.23-22.27-53.01Zm-147.49-43.1c-1.83-1.59-3.62-3.27-5.34-5.08-14.56-15.08-21.95-32.97-21.95-53.2s7.54-38.14,22.42-52.92c14.84-14.73,32.98-22.21,53.87-22.21s39.01,7.47,53.78,22.25c14.77,14.78,22.25,32.61,22.25,53.01,0,7.28-.95,14.24-2.82,20.87-3.32,11.87-9.61,22.68-18.8,32.29-.41.43-.84.86-1.27,1.29-14.3,14.32-31.79,21.58-51.97,21.58h-2.3c-4.09,0-8.1-.3-12-.93-13.31-2.09-25.33-7.78-35.86-16.95Zm120.27,123.56c-7.47,7.67-15.83,11.24-26.3,11.24s-19.15-3.73-26.82-11.37c-7.65-7.65-11.35-16.39-11.35-26.69,0-.69.02-1.38.04-2.05.47-9.5,4.22-17.66,11.39-24.98,7.65-7.75,16.35-11.54,26.6-11.54s18.74,3.62,26.3,11.37c2.07,2.11,3.83,4.31,5.32,6.59,3.96,6.1,5.92,12.86,5.92,20.48,0,10.47-3.64,19.28-11.11,26.94Z"/>
        <path class="cls-1" d="m196.86,135.04c6.55-6.7,10.14-14.3,10.94-23.09v-.02c.11-1.25.17-2.54.17-3.83,0-10.47-3.68-19.32-11.24-27.07-7.56-7.75-15.92-11.37-26.3-11.37s-18.95,3.77-26.6,11.54c-7.71,7.84-11.46,16.67-11.46,27.03,0,9.26,3.02,17.27,9.2,24.36.69.8,1.42,1.57,2.18,2.33,7.65,7.65,16.43,11.35,26.81,11.35s18.82-3.55,26.3-11.22Z"/>
      </g>
      <path class="cls-1" d="m389.09,198.16c-9.98-7.43-20.78-11.19-32.1-11.19-7.46,0-14.53,1.26-21.11,3.75v-.93h-38.36v145.65h38.36v-92.08c0-4.98,1.88-9.16,5.91-13.14,4.09-4.04,8.35-5.92,13.41-5.92,3.16,0,8.07.71,14.24,6.88l25.73,25.72v-54.22l-6.08-4.52Z"/>
      <path class="cls-1" d="m499.12,189.79v82.32c0,7.73-2.83,14.08-8.91,19.99-6.2,6.02-12.77,8.83-20.68,8.83s-13.78-2.67-19.23-8.4c-5.66-5.95-8.3-12.44-8.3-20.41v-82.32h-38.37v82.32c0,18.23,6.38,33.96,18.95,46.76,12.65,12.87,28.44,19.39,46.94,19.39,11.04,0,20.96-2.03,29.58-6.01v3.19h38.36v-145.65h-38.36Z"/>
      <path class="cls-1" d="m678.04,209.22c-14.77-14.76-32.91-22.25-53.91-22.25-12.9,0-25.44,3.35-37.28,9.96v-84.14h-38.36v222.65h38.36v-7.38c11.95,6.77,24.49,10.2,37.28,10.2,21,0,39.14-7.49,53.91-22.25,14.77-14.77,22.25-32.73,22.25-53.4s-7.49-38.62-22.26-53.4Zm-53.52,91.71c-10.39,0-19.16-3.72-26.81-11.37-7.65-7.65-11.37-16.38-11.37-26.68s3.75-19.19,11.45-27.03c7.64-7.77,16.34-11.54,26.6-11.54s18.73,3.61,26.29,11.36c7.57,7.76,11.24,16.61,11.24,27.07s-3.64,19.28-11.12,26.94c-7.48,7.66-15.83,11.23-26.29,11.23Z"/>
      <path class="cls-1" d="m816.63,189.79v6.96c-11.8-6.5-24.33-9.79-37.28-9.79-20.81,0-38.9,7.47-53.74,22.22-14.88,14.77-22.42,32.75-22.42,53.43s7.54,38.67,22.42,53.43c14.84,14.74,32.93,22.22,53.74,22.22,13.18,0,25.72-3.32,37.28-9.88v7.06h38.37v-145.65h-38.37Zm.51,72.95c0,10.47-3.63,19.28-11.11,26.94-7.48,7.66-15.83,11.23-26.3,11.23s-19.16-3.72-26.81-11.37c-7.65-7.65-11.37-16.38-11.37-26.68s3.75-19.19,11.45-27.03c7.64-7.77,16.34-11.54,26.6-11.54s18.73,3.61,26.3,11.36c7.57,7.76,11.24,16.61,11.24,27.07Z"/>
      <path class="cls-1" d="m369.84,52.1c-12.65-12.87-28.44-19.39-46.94-19.39-11.04,0-20.96,2.03-29.58,6.01v-3.19h-38.36v145.65h38.36v-82.32c0-7.73,2.83-14.08,8.91-19.98,6.2-6.02,12.77-8.83,20.68-8.83s13.78,2.67,19.23,8.4c5.66,5.95,8.3,12.44,8.3,20.41v82.32c5.03-.41,12.37-.43,20.89,1.63,7.5,1.81,13.39,4.63,17.48,6.98v-90.93c0-18.23-6.38-33.96-18.96-46.76Z"/>
      <path class="cls-1" d="m491.62,141.89c-5.84,3.38-12.39,5.03-20.04,5.03-2.4,0-4.93-.43-7.56-1.3l76.92-75.94-9.66-10.7c-15.59-17.27-34.64-26.02-56.62-26.02s-40.18,7.47-55.03,22.22c-14.88,14.77-22.42,32.58-22.42,52.92s7.55,38.22,22.44,53.32c14.94,15.16,32.85,22.84,53.21,22.84h2.31c21.62,0,40.22-8.39,55.29-24.95l3.93-4.32v-68.27l-27.58,40.91c-4.05,6.01-9.02,10.67-15.2,14.24Zm-19.14-71.59c4.18,0,8.14.59,11.9,1.78l-47.16,46.83c-1.1-3.63-1.64-7.48-1.64-11.59,0-9.62,3.72-18.01,11.37-25.66,7.65-7.65,16-11.37,25.53-11.37Z"/>
      <path class="cls-1" d="m133.84,215.63v127.98c0,19.3-6.83,35.93-20.33,49.41-13.48,13.5-30.2,20.33-49.67,20.33-23.02,0-42.37-9.41-55.89-27.25l-3.27-4.33,2.8-69.87,26.02,44.65c3.58,6.12,8.1,10.86,13.85,14.45,5.38,3.38,10.77,5.02,16.5,5.02,8.72,0,15.79-2.99,22.25-9.37,6.4-6.35,9.39-13.44,9.39-22.27v-17.19c-8.4,3.7-18.07,5.6-28.82,5.6-18.26,0-34.1-6.53-47.06-19.38-13.01-12.9-19.6-28.62-19.6-46.76v-82.34h38.36v82.34c0,7.84,2.74,14.26,8.59,20.18,5.84,5.88,12.17,8.62,19.97,8.62s14.13-2.74,19.96-8.62c5.86-5.92,8.59-12.34,8.59-20.18v-73.44c7.07,6.29,14.69,11.59,22.72,15.79,5.04,2.63,10.25,4.85,15.64,6.63Z"/>
      <polygon class="cls-3" points="459.09 182.59 431.37 146.66 471.92 146.66 488.61 182.59 459.09 182.59"/>
      <polygon class="cls-2" points="827.78 145.93 800.06 181.86 770.55 181.86 786.72 145.93 827.78 145.93"/>
      <g>
        <path class="cls-1" d="m166.84,407.26c-3.91,0-7.66-.65-11.23-1.96-3.57-1.3-6.78-3.23-9.61-5.79-2.84-2.55-5.08-5.7-6.72-9.44-1.65-3.74-2.47-8.05-2.47-12.93,0-4.42.78-8.48,2.34-12.17,1.56-3.69,3.76-6.9,6.59-9.66,2.84-2.75,6.17-4.88,10-6.38,3.83-1.5,8.01-2.25,12.55-2.25s8.69.71,12.46,2.13c3.77,1.42,6.99,3.57,9.66,6.47l-3.91,4c-2.5-2.5-5.25-4.28-8.25-5.36-3.01-1.08-6.24-1.62-9.7-1.62-3.69,0-7.08.61-10.17,1.83-3.09,1.22-5.79,2.95-8.08,5.19-2.3,2.24-4.08,4.88-5.36,7.91-1.28,3.04-1.91,6.34-1.91,9.91,0,3.97.68,7.47,2.04,10.51,1.36,3.04,3.18,5.6,5.45,7.7,2.27,2.1,4.85,3.7,7.74,4.81,2.89,1.11,5.9,1.66,9.02,1.66,3.4,0,6.75-.68,10.04-2.04,3.29-1.36,6.13-3.46,8.51-6.3l2.64,4.17c-2.33,3.23-5.4,5.64-9.23,7.23-3.83,1.59-7.96,2.38-12.38,2.38Zm17.7-.51v-8l-.51-.85v-20.93h6.04v29.78h-5.53Z"/>
        <path class="cls-1" d="m206.14,406.75v-59.56h6.3v59.56h-6.3Z"/>
        <path class="cls-1" d="m230.14,406.75v-59.56h22.29c5.05,0,9.39.81,13.02,2.43,3.63,1.62,6.42,3.94,8.38,6.98,1.96,3.04,2.94,6.71,2.94,11.02s-.98,7.81-2.94,10.85c-1.96,3.04-4.75,5.36-8.38,6.98-3.63,1.62-7.97,2.43-13.02,2.43h-18.8l2.81-2.89v21.78h-6.3Zm6.3-21.27l-2.81-2.98h18.63c5.96,0,10.48-1.3,13.57-3.91,3.09-2.61,4.64-6.27,4.64-10.98s-1.55-8.45-4.64-11.06c-3.09-2.61-7.62-3.91-13.57-3.91h-18.63l2.81-2.98v35.82Zm34.37,21.27l-15.32-21.61h6.81l15.4,21.61h-6.89Z"/>
        <path class="cls-1" d="m289.95,406.75v-59.56h6.3v54.11h33.35v5.45h-39.65Z"/>
        <path class="cls-1" d="m365.25,401.31h35.82v5.45h-42.12v-59.56h40.84v5.45h-34.54v48.67Zm-.68-27.48h31.48v5.36h-31.48v-5.36Z"/>
        <path class="cls-1" d="m414.17,406.75v-59.56h24.25c6.35,0,11.93,1.26,16.72,3.79,4.79,2.52,8.52,6.03,11.19,10.51,2.66,4.48,4,9.64,4,15.49s-1.33,11.01-4,15.48c-2.67,4.48-6.4,7.98-11.19,10.51-4.79,2.53-10.37,3.79-16.72,3.79h-24.25Zm6.3-5.45h17.61c5.28,0,9.86-1.03,13.74-3.1,3.89-2.07,6.91-4.94,9.06-8.59,2.16-3.66,3.23-7.87,3.23-12.63s-1.08-9.05-3.23-12.68c-2.16-3.63-5.18-6.48-9.06-8.55-3.89-2.07-8.47-3.11-13.74-3.11h-17.61v48.67Z"/>
        <path class="cls-1" d="m506.75,407.26c-7.6,0-13.59-2.18-17.95-6.55-4.37-4.37-6.55-10.83-6.55-19.4v-34.12h6.3v33.86c0,7.03,1.59,12.22,4.76,15.57,3.18,3.35,7.66,5.02,13.44,5.02s10.35-1.67,13.53-5.02c3.18-3.35,4.76-8.54,4.76-15.57v-33.86h6.13v34.12c0,8.57-2.17,15.03-6.51,19.4-4.34,4.37-10.31,6.55-17.91,6.55Z"/>
        <path class="cls-1" d="m574.3,407.26c-4.48,0-8.62-.75-12.42-2.26-3.8-1.5-7.09-3.62-9.87-6.34-2.78-2.72-4.95-5.93-6.51-9.61-1.56-3.69-2.34-7.71-2.34-12.08s.78-8.39,2.34-12.08c1.56-3.69,3.74-6.89,6.55-9.61,2.81-2.72,6.11-4.84,9.91-6.34,3.8-1.5,7.94-2.25,12.42-2.25s8.37.72,12.17,2.17c3.8,1.45,7.01,3.62,9.61,6.51l-4,4c-2.44-2.5-5.13-4.3-8.08-5.4-2.95-1.11-6.13-1.66-9.53-1.66-3.57,0-6.89.61-9.95,1.83-3.06,1.22-5.73,2.95-8,5.19-2.27,2.24-4.04,4.85-5.32,7.83-1.28,2.98-1.91,6.25-1.91,9.83s.64,6.85,1.91,9.83c1.28,2.98,3.05,5.59,5.32,7.83,2.27,2.24,4.94,3.97,8,5.19,3.06,1.22,6.38,1.83,9.95,1.83s6.58-.57,9.53-1.7c2.95-1.13,5.64-2.95,8.08-5.44l4,4c-2.61,2.89-5.81,5.08-9.61,6.55-3.8,1.48-7.88,2.21-12.25,2.21Z"/>
        <path class="cls-1" d="m596.85,406.75l27.23-59.56h6.21l27.23,59.56h-6.64l-25.02-55.9h2.55l-25.02,55.9h-6.55Zm10.72-15.91l1.87-5.1h34.63l1.87,5.1h-38.37Z"/>
        <path class="cls-1" d="m674.28,406.75v-54.11h-20.93v-5.45h48.16v5.45h-20.93v54.11h-6.3Z"/>
        <path class="cls-1" d="m709.84,406.75v-59.56h6.3v59.56h-6.3Z"/>
        <path class="cls-1" d="m759.87,407.26c-4.48,0-8.64-.75-12.47-2.26-3.83-1.5-7.15-3.63-9.95-6.38-2.81-2.75-4.99-5.96-6.55-9.61-1.56-3.66-2.34-7.67-2.34-12.04s.78-8.38,2.34-12.04c1.56-3.66,3.74-6.86,6.55-9.61s6.11-4.88,9.91-6.38c3.8-1.5,7.97-2.25,12.51-2.25s8.62.75,12.42,2.25c3.8,1.5,7.1,3.62,9.91,6.34,2.81,2.72,4.99,5.93,6.55,9.61,1.56,3.69,2.34,7.71,2.34,12.08s-.78,8.4-2.34,12.08c-1.56,3.69-3.74,6.89-6.55,9.61-2.81,2.72-6.11,4.84-9.91,6.34-3.8,1.5-7.94,2.26-12.42,2.26Zm0-5.62c3.57,0,6.88-.61,9.91-1.83,3.03-1.22,5.67-2.95,7.91-5.19,2.24-2.24,3.98-4.85,5.23-7.83,1.25-2.98,1.87-6.25,1.87-9.83s-.63-6.85-1.87-9.83c-1.25-2.98-2.99-5.59-5.23-7.83-2.24-2.24-4.88-3.97-7.91-5.19-3.04-1.22-6.34-1.83-9.91-1.83s-6.89.61-9.96,1.83c-3.06,1.22-5.71,2.95-7.95,5.19s-4,4.85-5.28,7.83c-1.28,2.98-1.91,6.25-1.91,9.83s.64,6.78,1.91,9.78c1.28,3.01,3.03,5.63,5.28,7.87,2.24,2.24,4.89,3.97,7.95,5.19,3.06,1.22,6.38,1.83,9.96,1.83Z"/>
        <path class="cls-1" d="m803.52,406.75v-59.56h5.19l41.1,51.73h-2.72v-51.73h6.21v59.56h-5.19l-41.01-51.73h2.72v51.73h-6.3Z"/>
      </g>
    </g>
  </g>
</svg>