<?xml version="1.0" encoding="UTF-8"?>
<svg id="Layer_2" data-name="Layer 2" xmlns="http://www.w3.org/2000/svg" viewBox="0 0 502.35 333.54">
  <defs>
    <style>
      .cls-1 {
        fill: #c1272d;
        stroke-width: 0px;
      }
    </style>
  </defs>
  <g id="Layer_1-2" data-name="Layer 1">
    <g>
      <path class="cls-1" d="m187.76,121.34c7.98,0,12.23,4.76,11.53,12.89-.95,11.03-13.58,20.74-24.59,18.9-6.34-1.06-10.07-6.09-9.21-12.41,1.46-10.73,11.41-19.38,22.27-19.38Z"/>
      <g>
        <path class="cls-1" d="m187.98,95.76c1.15-.9,2.42-1.42,3.83-1.56,1.41-.14,2.85.11,4.32.77,1.46.65,2.61,1.55,3.45,2.69.85,1.15,1.32,2.45,1.41,3.91.1,1.46-.2,2.96-.89,4.52l-2.48,5.58-14.89-6.62,2.48-5.58c.7-1.57,1.62-2.8,2.76-3.7Zm9.19,5.46c-.41-1.1-1.3-1.95-2.67-2.56-1.37-.61-2.61-.7-3.71-.28-1.1.42-1.96,1.32-2.57,2.69l-.76,1.72,8.65,3.85.76-1.72c.61-1.37.71-2.61.3-3.7Z"/>
        <path class="cls-1" d="m195.07,86.78l2.87,1.62,2.62-4.63,2.67,1.51-2.62,4.63,3.11,1.76,2.96-5.24,2.77,1.56-4.91,8.69-14.19-8.02,4.91-8.69,2.77,1.56-2.96,5.24Z"/>
        <path class="cls-1" d="m210.36,81.06l2.9-4.32,2.55,1.71-5.11,7.61-13.53-9.09,2.21-3.3,10.99,7.38Z"/>
        <path class="cls-1" d="m206.27,64.12l12.98,9.86-2.4,3.16-12.98-9.86,2.4-3.16Z"/>
        <path class="cls-1" d="m218.72,49.6l8.34,15.15-3.3,3.71-16.02-6.51,2.81-3.16,11.88,5.16-6.5-11.21,2.79-3.14Z"/>
        <path class="cls-1" d="m225.9,47.31l2.24,2.42,3.9-3.62,2.08,2.25-3.9,3.62,2.43,2.62,4.41-4.09,2.17,2.33-7.31,6.79-11.09-11.94,7.32-6.79,2.16,2.33-4.41,4.09Z"/>
        <path class="cls-1" d="m247.48,46.26l-6.45-2.79-.75.58,3.76,4.87-3.14,2.43-9.97-12.89,5.27-4.08c1.02-.79,2.02-1.28,3.01-1.48.99-.2,1.9-.13,2.74.22.83.34,1.54.9,2.13,1.65.66.86,1.01,1.81,1.05,2.86.04,1.05-.31,2.08-1.03,3.09l6.92,2.8-3.54,2.74Zm-8.92-4.43l1.95-1.51c.58-.44.9-.92.97-1.42.07-.5-.09-1.01-.49-1.53-.38-.49-.82-.76-1.33-.82-.51-.06-1.04.13-1.62.58l-1.95,1.51,2.47,3.2Z"/>
        <path class="cls-1" d="m247.11,26.67l9.02,13.58-3.31,2.2-9.02-13.58,3.31-2.2Z"/>
        <path class="cls-1" d="m270.95,31.66l-3.47,1.93-10.68-5.56,4.88,8.79-3.47,1.93-7.91-14.25,3.47-1.93,10.71,5.61-4.9-8.83,3.47-1.93,7.91,14.25Z"/>
        <path class="cls-1" d="m278.92,16.15c-.48-.39-1.03-.61-1.64-.67-.62-.05-1.27.06-1.96.34-1.19.49-1.98,1.27-2.37,2.35-.39,1.08-.32,2.26.22,3.57.57,1.39,1.4,2.32,2.47,2.79,1.07.47,2.27.43,3.58-.11.9-.37,1.57-.91,2-1.63.43-.71.62-1.56.55-2.54l-4.66,1.92-1.11-2.7,7.98-3.29,1.41,3.41c.11,1.03,0,2.07-.33,3.12-.32,1.06-.89,2.03-1.69,2.93-.8.9-1.83,1.61-3.09,2.13-1.49.61-2.95.84-4.38.67-1.43-.17-2.72-.7-3.85-1.59-1.13-.89-2-2.08-2.61-3.57-.62-1.49-.84-2.95-.67-4.38.17-1.43.7-2.72,1.59-3.85.89-1.13,2.08-2,3.57-2.61,1.8-.74,3.5-.94,5.1-.57,1.6.36,2.92,1.23,3.95,2.61l-4.06,1.67Z"/>
        <path class="cls-1" d="m299.54,4.39l2.82,10.73c.44,1.66.31,3.06-.39,4.21-.7,1.14-1.84,1.92-3.43,2.34-1.66.44-3.12.32-4.37-.36-1.25-.68-2.1-1.89-2.56-3.62l3.82-1c.17.66.44,1.12.8,1.39.36.27.79.33,1.3.2.46-.12.78-.37.96-.73.17-.37.19-.83.04-1.4l-2.82-10.73,3.84-1.01Z"/>
        <path class="cls-1" d="m309.74,18.01c-1.37-.51-2.53-1.34-3.46-2.48-.94-1.15-1.53-2.51-1.77-4.08-.24-1.58-.09-3.05.46-4.42.55-1.37,1.4-2.5,2.55-3.4,1.15-.9,2.49-1.47,4-1.7,1.51-.23,2.96-.1,4.33.41,1.37.51,2.52,1.33,3.44,2.47.92,1.14,1.5,2.5,1.75,4.08.24,1.58.1,3.05-.44,4.43-.54,1.38-1.38,2.51-2.53,3.41-1.14.9-2.47,1.46-3.99,1.7-1.51.24-2.96.1-4.33-.41Zm6.66-4.93c.64-.98.85-2.17.63-3.58-.22-1.42-.78-2.5-1.69-3.23-.9-.73-2-.99-3.28-.79-1.3.2-2.27.78-2.91,1.74-.64.96-.85,2.16-.63,3.6.22,1.42.78,2.5,1.69,3.23.9.73,2,.99,3.3.79,1.28-.2,2.25-.79,2.89-1.76Z"/>
        <path class="cls-1" d="m337.29,0l-5.14,11.16.24,5.38-3.97.18-.24-5.38-6.13-10.65,4.5-.2,3.46,6.68,2.82-6.96,4.45-.2Z"/>
        <path class="cls-1" d="m357.08,1.25l-.26,3.17-4.3-.35-1.07,13.07-3.96-.33,1.07-13.07-4.3-.35.26-3.17,12.56,1.03Z"/>
        <path class="cls-1" d="m360.97,17.4c-1.12-.94-1.93-2.1-2.43-3.5-.5-1.39-.6-2.87-.31-4.44.3-1.57.93-2.9,1.91-4.01.97-1.11,2.15-1.89,3.54-2.35,1.39-.46,2.83-.55,4.34-.27,1.51.29,2.82.9,3.94,1.83s1.93,2.1,2.41,3.48c.49,1.38.58,2.86.28,4.43-.3,1.57-.93,2.91-1.9,4.02-.97,1.12-2.14,1.91-3.52,2.37-1.38.46-2.82.55-4.33.27-1.5-.29-2.82-.9-3.94-1.83Zm7.93-2.42c.93-.71,1.53-1.76,1.79-3.16.27-1.41.1-2.62-.51-3.61-.61-.99-1.55-1.61-2.83-1.85-1.29-.24-2.4-.02-3.33.67-.93.69-1.52,1.75-1.8,3.18-.27,1.41-.1,2.62.51,3.61.61.99,1.56,1.61,2.85,1.85,1.28.24,2.38,0,3.31-.7Z"/>
        <path class="cls-1" d="m397.96,11.56l-8.88,8.49-1.75,5.09-3.76-1.29,1.75-5.09-1.8-12.15,4.26,1.46.77,7.48,5.18-5.44,4.22,1.45Z"/>
        <path class="cls-1" d="m397.32,28.09c-.85-1.19-1.34-2.52-1.48-4-.13-1.48.14-2.93.82-4.38.68-1.44,1.63-2.58,2.85-3.4,1.22-.83,2.56-1.29,4.02-1.39,1.46-.1,2.88.18,4.27.83,1.38.65,2.5,1.58,3.35,2.77.85,1.19,1.34,2.51,1.46,3.98s-.15,2.91-.84,4.35c-.68,1.44-1.63,2.58-2.85,3.42-1.22.84-2.55,1.31-4,1.41-1.45.1-2.87-.17-4.26-.83-1.39-.65-2.5-1.58-3.35-2.77Zm8.28-.35c1.08-.45,1.92-1.32,2.53-2.61.62-1.3.75-2.51.41-3.62-.34-1.11-1.1-1.94-2.27-2.5-1.19-.56-2.32-.62-3.39-.19-1.07.44-1.92,1.31-2.54,2.63-.62,1.3-.75,2.51-.41,3.62.34,1.11,1.11,1.95,2.29,2.51,1.18.56,2.3.61,3.38.16Z"/>
        <path class="cls-1" d="m421.69,23.39l-5.13,8.29c-.51.83-.7,1.59-.57,2.29.13.7.59,1.29,1.38,1.78.79.49,1.53.64,2.23.45.7-.19,1.3-.7,1.82-1.52l5.13-8.29,3.38,2.09-5.12,8.27c-.76,1.24-1.68,2.12-2.73,2.65-1.06.53-2.16.74-3.32.62-1.16-.12-2.28-.51-3.37-1.19-1.09-.68-1.94-1.49-2.54-2.45-.6-.96-.88-2.03-.85-3.2.03-1.17.43-2.38,1.2-3.61l5.12-8.27,3.38,2.09Z"/>
        <path class="cls-1" d="m429.89,48.81l1.07-6.94-.75-.58-3.75,4.87-3.15-2.42,9.94-12.91,5.28,4.07c1.02.78,1.75,1.63,2.19,2.54.44.91.6,1.81.48,2.7-.12.89-.48,1.72-1.06,2.48-.66.86-1.49,1.44-2.5,1.74s-2.09.23-3.25-.22l-.96,7.41-3.55-2.73Zm2.03-9.75l1.95,1.5c.58.44,1.12.64,1.62.58.5-.06.96-.35,1.35-.86.38-.49.53-.99.46-1.49-.07-.5-.4-.98-.97-1.42l-1.95-1.5-2.46,3.2Z"/>
        <path class="cls-1" d="m456.86,52.84c.42,1.39.43,2.77.05,4.14-.38,1.37-1.14,2.61-2.29,3.74-1.13,1.12-2.39,1.86-3.77,2.23-1.38.37-2.76.33-4.15-.11-1.39-.44-2.69-1.27-3.88-2.48l-4.29-4.35,11.6-11.45,4.29,4.35c1.21,1.22,2.02,2.53,2.44,3.92Zm-8.43,6.56c1.17.02,2.29-.5,3.36-1.55,1.07-1.05,1.61-2.17,1.61-3.35,0-1.18-.52-2.31-1.57-3.38l-1.32-1.34-6.74,6.65,1.32,1.34c1.05,1.07,2.17,1.61,3.34,1.63Z"/>
        <path class="cls-1" d="m452.88,69.98c-.23-1.44-.07-2.86.47-4.23.54-1.38,1.44-2.56,2.7-3.54,1.25-.98,2.61-1.57,4.07-1.76,1.46-.19,2.87,0,4.22.56,1.35.57,2.5,1.45,3.44,2.66.95,1.21,1.53,2.53,1.76,3.98.23,1.44.07,2.85-.48,4.21-.55,1.36-1.45,2.53-2.7,3.52-1.26.98-2.61,1.58-4.08,1.78-1.46.2-2.87.02-4.21-.54-1.34-.56-2.49-1.44-3.43-2.65-.94-1.21-1.53-2.53-1.76-3.98Zm7.56,3.4c1.16.08,2.31-.32,3.43-1.2,1.13-.89,1.8-1.9,1.99-3.05.19-1.15-.11-2.23-.91-3.25-.81-1.04-1.79-1.6-2.95-1.69-1.15-.09-2.3.31-3.45,1.21-1.13.89-1.8,1.9-1.99,3.05s.11,2.24.93,3.27c.8,1.02,1.78,1.58,2.95,1.66Z"/>
        <path class="cls-1" d="m463.46,84.42c-.05-1.46.27-2.84.97-4.15.7-1.3,1.73-2.37,3.1-3.2,1.36-.83,2.78-1.25,4.26-1.26,1.47-.02,2.85.34,4.12,1.06,1.27.72,2.3,1.74,3.1,3.05.79,1.31,1.22,2.7,1.27,4.16.05,1.46-.27,2.84-.98,4.12-.7,1.29-1.74,2.34-3.1,3.17-1.36.83-2.78,1.25-4.26,1.28-1.48.03-2.85-.32-4.12-1.03-1.27-.72-2.3-1.73-3.09-3.04-.8-1.31-1.22-2.7-1.27-4.16Zm7.1,4.27c1.15.22,2.33-.04,3.55-.78,1.23-.75,2.01-1.68,2.34-2.79.33-1.11.16-2.23-.52-3.34-.68-1.12-1.59-1.8-2.72-2.03-1.13-.23-2.32.04-3.57.79-1.23.75-2.01,1.68-2.34,2.79-.33,1.11-.15,2.23.53,3.36.67,1.11,1.58,1.78,2.73,2Z"/>
        <path class="cls-1" d="m473.44,104.78l4.15-5.67-.4-.86-5.58,2.6-1.68-3.6,14.78-6.88,2.81,6.04c.54,1.16.8,2.25.78,3.26-.03,1.01-.3,1.88-.82,2.62-.52.74-1.21,1.31-2.08,1.71-.98.46-1.99.59-3.02.39-1.03-.2-1.96-.76-2.78-1.69l-4.26,6.13-1.89-4.06Zm6.29-7.72l1.04,2.23c.31.66.7,1.08,1.18,1.26.48.18,1.01.13,1.6-.14.56-.26.93-.63,1.09-1.11.17-.48.1-1.05-.21-1.71l-1.04-2.23-3.66,1.71Z"/>
        <path class="cls-1" d="m477.32,113.08c.05-1.02.34-1.92.87-2.71.53-.79,1.29-1.37,2.29-1.75l1.41,3.99c-.55.26-.91.61-1.09,1.05-.18.44-.18.93.01,1.47.2.56.48.95.85,1.18.37.23.78.27,1.23.11.38-.13.65-.37.81-.72.16-.34.25-.73.28-1.16.03-.43.03-1.02-.01-1.78-.04-1.1-.02-2.02.06-2.75s.35-1.44.79-2.1c.44-.66,1.14-1.17,2.1-1.51,1.43-.5,2.73-.38,3.91.37,1.18.75,2.06,1.96,2.64,3.62.6,1.69.67,3.2.23,4.52-.44,1.32-1.38,2.27-2.8,2.86l-1.43-4.05c.48-.2.81-.52.98-.96.17-.44.16-.92-.03-1.44-.16-.45-.41-.78-.75-.97-.34-.19-.73-.21-1.19-.05-.5.18-.8.55-.91,1.11s-.15,1.4-.12,2.51c.01,1.11-.02,2.03-.11,2.76-.09.73-.34,1.42-.77,2.08-.43.66-1.1,1.15-2.02,1.47-.88.31-1.75.37-2.62.17s-1.67-.64-2.39-1.34c-.72-.7-1.29-1.62-1.69-2.78-.4-1.12-.57-2.2-.52-3.22Z"/>
        <path class="cls-1" d="m499.22,131.25l-3.09.78-1.06-4.19-12.72,3.21-.97-3.85,12.72-3.21-1.06-4.19,3.08-.78,3.09,12.22Z"/>
        <path class="cls-1" d="m497.27,138.69l-3.25.53.86,5.25-3.02.49-.86-5.25-3.53.58.97,5.94-3.14.51-1.61-9.85,16.09-2.62,1.61,9.85-3.14.51-.97-5.93Z"/>
        <path class="cls-1" d="m494.88,160.09c-.81-.38-1.49-1-2.03-1.86s-.86-1.96-.95-3.28l-.17-2.46-5.84.41-.28-3.96,16.26-1.14.45,6.42c.09,1.3-.06,2.41-.44,3.34-.38.93-.96,1.64-1.71,2.14-.76.5-1.64.79-2.66.86-.94.07-1.82-.09-2.63-.47Zm.8-4.01c.38.35.9.5,1.54.45.65-.05,1.14-.27,1.47-.66.33-.4.47-.97.41-1.73l-.15-2.15-4.08.29.15,2.15c.05.76.27,1.31.65,1.65Z"/>
      </g>
      <g>
        <path class="cls-1" d="m99.47,294.31l.02,6.35-8.94.77.09,26.2-8.21.71-.09-26.2-8.94.77-.02-6.35,26.09-2.25Z"/>
        <path class="cls-1" d="m123.8,324.78l-7.06-11.68-1.97.17.04,12.29-8.21.71-.12-32.56,13.79-1.19c2.66-.23,4.93.02,6.8.76,1.88.74,3.28,1.84,4.22,3.32.93,1.48,1.4,3.18,1.41,5.1,0,2.16-.62,4.15-1.88,5.96-1.26,1.81-3.12,3.18-5.58,4.1l7.83,12.22-9.27.8Zm-9.05-17.13l5.09-.44c1.5-.13,2.63-.58,3.38-1.36.75-.78,1.12-1.81,1.12-3.11,0-1.24-.38-2.18-1.14-2.82-.76-.65-1.89-.9-3.39-.77l-5.09.44.03,8.07Z"/>
        <path class="cls-1" d="m148.93,296.4l.02,6.58,11-.95.02,6.12-11,.95.03,7.14,12.44-1.07.02,6.35-20.66,1.78-.12-32.56,20.66-1.78.02,6.35-12.44,1.08Z"/>
        <path class="cls-1" d="m190.65,313.26l-12.59,1.09-2,5.92-8.6.74,12.08-33.61,9.51-.82,12.32,31.5-8.69.75-2.04-5.58Zm-2.14-5.94l-4.22-11.56-4.09,12.28,8.31-.72Z"/>
        <path class="cls-1" d="m232.11,282.86l.02,6.35-8.94.77.09,26.2-8.22.71-.09-26.2-8.93.77-.02-6.35,26.09-2.25Z"/>
        <path class="cls-1" d="m244.81,313.5c-1.96-.6-3.52-1.61-4.7-3.03-1.18-1.41-1.8-3.18-1.87-5.31l8.74-.75c.13,1.2.57,2.08,1.31,2.65.74.57,1.7.8,2.88.7,1.22-.1,2.18-.46,2.88-1.06.7-.6,1.05-1.38,1.05-2.34,0-.8-.29-1.44-.85-1.92-.56-.48-1.25-.85-2.07-1.12-.82-.27-1.98-.56-3.49-.86-2.18-.46-3.96-.96-5.34-1.49-1.38-.53-2.57-1.38-3.57-2.57-1-1.18-1.5-2.79-1.51-4.83-.01-3.03,1.12-5.5,3.38-7.41,2.27-1.91,5.23-3.03,8.88-3.34,3.71-.32,6.71.28,8.99,1.8,2.28,1.52,3.5,3.8,3.68,6.85l-8.89.77c-.07-1.04-.47-1.84-1.21-2.38-.74-.54-1.68-.76-2.84-.66-.99.09-1.79.41-2.4.97-.61.56-.91,1.32-.91,2.28,0,1.05.52,1.83,1.55,2.32,1.03.5,2.63.99,4.81,1.49,2.18.52,3.95,1.05,5.32,1.58,1.36.53,2.54,1.37,3.54,2.52,1,1.15,1.5,2.7,1.51,4.65,0,1.86-.48,3.58-1.45,5.18-.97,1.6-2.39,2.93-4.24,3.98-1.85,1.06-4.05,1.7-6.58,1.91-2.47.21-4.68.02-6.63-.59Z"/>
      </g>
      <path class="cls-1" d="m424.37,217.38l.02.08c.34-.09.68-.17,1.02-.27-.34.08-.69.15-1.04.19Z"/>
      <path class="cls-1" d="m495.06,188.16c-3.25-7.42-11.36-14.02-19.05-7.28-2.9,2.8-4.4,6.23-6.05,9.59-.05.11-.1.21-.14.31-1.32-1.85-2.37-3.81-3.09-5.79-2.52-6.41-2.04-13.99-2.52-21.16-.19-1.33-.4-2.3-1.04-3.63-2.84-6.08-11.36-6.83-15.24-1.33-1.96,2.69-2.41,6.33-3.11,9.28-2.26,9.42-4.86,19.31-13.09,25.37-1.58,1.16-3.29,2.13-5.09,2.91-3.51,1.51-7.09,2.28-10.54.14-2.98-1.85-3.65-5.39-3.44-8.67.36-5.57,1.73-11.19,3.41-16.54,5.54-17.65,13.5-34.3,21.9-50.74,2.05-4,1.22-6.09-3.11-7.4-5.49-1.67-10.44-.35-14.67,3.41-1.83,1.62-3.33,3.59-4.97,5.41-.11-.02-.23,0-.3-.07-.38-.34-.74-.71-1.12-1.04-5.27-4.73-11.32-7.04-18.48-5.83-10.51,1.77-18.97,7.29-26.35,14.62-13.86,13.75-24.21,29.78-30.07,48.43-2.1,6.68-5.43,12.34-9.84,17.62-6.52,7.8-13.21,15.38-22.45,20.08-9.24,4.7-14.74,1.55-14.15-8.75.43-7.46,2.07-14.87,3.66-22.2.47-2.16,2.2-4.46,4-5.84,28.74-22.17,50.74-49.74,66.27-82.48,3.37-7.09,5.91-14.52,5.87-22.57-.04-10.35-5.82-15.79-16.18-15.33-8.86.38-15.87,4.76-22.43,10.11-10.38,8.47-18.41,19.04-24.97,30.53-17.55,30.71-31.32,63.09-41.16,97.11-.44,1.55-1.01,3.22-2,4.44-5.44,6.62-10.82,13.31-16.62,19.59-4.85,5.24-10.49,9.68-17.25,12.33-6.26,2.45-10.51.46-11.13-6.2-.6-6.38.21-12.9.54-19.34.15-2.86,1.95-4.74,4.11-6.58,6.35-5.42,12.88-10.69,18.61-16.72,16.7-17.5,30.93-36.81,40.7-59.12,3.95-9.01,6.86-18.3,7.63-28.22,1.02-12.99-7.77-20.79-20.4-17.51-3.81,1-7.85,2.52-10.84,4.96-5.4,4.4-10.53,9.3-14.99,14.65-10.51,12.57-18.33,26.9-25.69,41.47-10.01,19.81-18.59,40.2-24.22,61.75-.59,2.26-1.17,4.7-2.45,6.6-4.15,6.15-8.21,12.45-13.1,18-4.66,5.29-10.19,9.86-15.59,14.43-2.03,1.72-4.93,2.54-7.54.97-3.28-1.96-2.12-6.3-1.63-9.38,1.65-10.57,6.06-20.02,10.42-29.7,4.6-10.22,9.38-20.35,14.14-30.49,1.34-2.84.65-4.15-1.9-5.27-5.13-2.26-10.45-2.04-15.82-1.39-5.73.68-9.05,3.67-10.76,9.4-2.96,9.9-8.66,18.37-12.35,28-4.07,10.62-6.79,21.76-8.06,33.06-1.64,14.64,1.92,34.58,21.71,28.54,5.74-1.76,10.79-4.74,15-8.95,4.23-4.23,8.31-8.62,12.24-13.14,3.89-4.48,7.52-9.2,11.51-14.13.33,2.21.61,4,.85,5.78,1.63,11.89,10.02,19.18,21.95,19.11,5.84-.04,11.12-1.94,16.17-4.69,13.29-7.25,23.02-18.25,31.93-30.14.7-.94,1.33-1.92,2.36-3.42.31,2.08.51,3.4.7,4.72,1.72,12.64,11.73,19.88,24.35,17.58,10.47-1.91,18.88-7.57,26.34-14.75,6.12-5.89,11.89-12.15,17.91-18.35.09.75.17,1.53.25,2.31,1.5,14.1,12.01,21.34,25.63,17.69,7.04-1.9,12.64-6.03,17.33-11.41,4.19-4.81,8.09-9.87,12.37-15.13,1.05,1.93,2.02,3.73,3.01,5.52,5.47,9.85,13.94,14.55,25.08,14.71,2.17,0,4.29-.2,6.35-.59.35-.05.7-.12,1.04-.19.02,0,.05,0,.08-.02,5.04-1.39,10.11-3.49,14.73-6.58,1.38-.88,2.68-1.84,3.9-2.87,4.2-3.51,7.49-7.8,10.07-12.51.65,1.12,1.34,2.22,2.12,3.28,1.75,2.4,3.83,4.72,6.14,6.84-.61,1.02-1.24,2.01-1.89,2.93-2.42,3.53-5.17,6.76-8.32,9.49-3.82,3.37-8.26,5.94-13.08,7.73,1.1,2.6,1.65,5.39,2.37,8.12.49.4.89.85,1.21,1.34.98-.32,1.96-.67,2.92-1.04,10.98-4.11,19.74-12.36,26.34-21.93,4.42,2.22,9.23,3.56,14.15,3.49,15.02-1,13.88-17.12,8.91-27.3Zm-178.54-59.01c6.56-14.56,13.5-28.97,23.2-41.79,2.52-3.35,5.58-6.34,8.64-9.22,1.7-1.61,3.98-3.03,6.42-1.37,2.27,1.54,2.55,4.14,1.68,6.4-3.18,8.35-6.1,16.86-10.08,24.83-9.86,19.74-30.56,46.26-44.39,57.84-.26-.13-.53-.25-.79-.38,5.09-12.11,9.94-24.34,15.32-36.32Zm-54.97-22.77c1.92-2.88,4.3-5.57,6.93-7.81,1.21-1.04,3.86-1.52,5.24-.89,1.15.53,1.95,3.02,1.99,4.65.15,7.17-2.52,13.73-5.16,20.2-10.11,24.88-25.11,46.51-43.9,65.58-.28.28-.62.49-1.59,1.24,8.8-29.81,19.67-57.71,36.48-82.97Zm143.15,40.41c-6.38,17.67-15.08,34.09-27.55,48.31-1.96,2.23-4.16,4.32-6.49,6.16-4.9,3.86-9.45,2.04-10.62-4.11-.23-1.2-.2-2.46-.27-3.41.49-9.5,3.44-18.07,7.09-26.39,4.06-9.27,8.84-18.15,15.24-26.08,4.24-5.26,9.62-9.02,15.65-11.85,5.35-2.52,9.38-.06,9.18,5.91-.13,3.85-.92,7.83-2.22,11.45Zm74.67,52.4c1.04-2,2.2-4.24,3.29-6.08.86,1.83,1.48,3.98,1.75,5.78.12.62.18,1.41.19,2.16-1.78-.35-3.54-.98-5.23-1.86Z"/>
      <path class="cls-1" d="m164.9,203.42c-.26-2.53-.49-5.06-.68-7.6-12.82,18.76-27.95,35.54-46.43,49.44-11.73,8.84-24.19,16.05-38.92,18.72-17.4,3.15-31.59-4.02-38.42-19.75-3.15-7.27-4.88-14.91-4.74-22.86.31-18.08,5.7-34.89,13.1-51.16,10.34-22.73,24.78-42.33,44.86-57.47,7.04-5.3,14.6-9.75,23.47-11.32,11.73-2.08,21.89,3.34,24.47,14.11,3.68,15.4.14,29.48-10.35,41.48-1.6,1.83-4.15,3.07-6.5,3.95-2.82,1.05-5.72.68-7.94-1.8-2.15-2.4-2.07-5.04-.89-7.79,1.02-2.37,2.13-4.7,3.12-7.08,1.03-2.49-.11-4.2-2.45-4.67-1.59-.33-3.65-.23-5,.55-10.86,6.26-19.15,14.72-21.58,27.55-1.88,9.92,3.84,18.08,13.69,20.19,6.89,1.48,13.28-.22,19.54-2.91,23.89-10.29,41.22-43.6,37.04-68.26-2.31-13.63-9.84-22.88-23.28-26.95-8.67-2.63-17.5-2.68-26.35-1.26-17.67,2.85-33.13,10.77-46.85,21.86-22.99,18.6-39.73,42.07-51.47,69.1C3.52,199.81-1.95,220.84.65,243.26c1.41,12.25,5.49,23.54,13.82,32.84,13.5,15.05,31.01,18.8,50.17,16.75,14.54-1.56,27.68-7.36,39.66-15.53,20.08-13.69,36.62-30.88,50.8-50.37,1.84-8.42,5.35-16.21,9.79-23.53Z"/>
      <path class="cls-1" d="m447.55,166.26v-.11s-.01.02,0,.02c0,.03.01.03.02.13,0,.01,0,.03,0,.04,0-.02-.01-.05-.02-.08Z"/>
      <path class="cls-1" d="m436.35,237.73c-2.32-3.73-3.18-7.57-3.3-11.05l-12.66,3.15-.13.02h-.07s-.65.13-.65.13l-.84.28c-11.27,3.75-23.41,7.81-35.79,11.95-11.27,3.43-22.51,6.95-33.92,9.91-4.45,1.15-8.91,2.24-13.39,3.28-2.24.51-4.49,1.02-6.73,1.51-1.8.39-3.59.71-5.38,1.11-11.13,1.1-12.77,3.99-13.04,16.51,0,.33-.25.65-.66,1.62-13.68,1.57-27.7,3.17-42.03,4.81-.7,6.5,3.79,10.49,5.92,15.48,2,4.7.64,10.83.84,16.32.02.67.41,1.52.91,1.94,4.01,3.4,5.05,7.7,5.79,12.88.96,6.83,6.08,7.83,10.76,2.83,4.33-4.63,8.67-9.27,12.92-13.97,4.58-5.05,9.05-10.18,13.74-15.45,2.9,3.03,5.3,5.46,7.59,7.98,2.58,2.84,4.83,3.3,8.25.67,5.6-4.3,11.47-8.39,17.73-11.59,1-.51,1.8-1.04,2.45-1.61,7.5-5.12,15-10.24,22.5-15.35h0c16.39-10.86,32.77-21.74,47.92-31.75l.27-.18s0,0,.02,0c.04-.03.08-.06.12-.09l.71-.52c1.71-1.25,3.55-2.3,5.22-3.59,1.99-1.51,4.03-2.93,6.02-4.43.19-.15.4-.3.59-.44-.59-.72-1.16-1.5-1.68-2.34Zm-108.05,63.75c6.66-2.95,13.26-5.87,20.67-9.16-4.6,6.78-14.39,10.88-20.67,9.16Zm126.94-80.35l-13.59,3.41-3.76.94c-.05,3.02.55,6.44,2.57,9.7.45.73.94,1.39,1.46,2,1.37-1.03,2.74-2.06,4.07-3.13l10.84-8.64-1.6-4.28Z"/>
    </g>
  </g>
</svg>