<?xml version="1.0" encoding="UTF-8"?>
<svg id="Layer_2" data-name="Layer 2" xmlns="http://www.w3.org/2000/svg" viewBox="0 0 574.75 418.77">
  <defs>
    <style>
      .cls-1 {
        fill: #1a1c1d;
        stroke-width: 0px;
      }
    </style>
  </defs>
  <g id="Layer_1-2" data-name="Layer 1">
    <g>
      <g>
        <g>
          <path class="cls-1" d="m82.14,68.69h-30.91c-7.63,0-11.45-4.58-11.45-13.74v-20.61c0-9.16,3.82-13.74,11.45-13.74h26.33c7.63,0,11.45,4.58,11.45,13.74v4.97h22.9v-4.97C111.9,11.45,100.46,0,77.56,0h-26.33C28.33,0,16.88,11.45,16.88,34.34v20.61c0,22.9,11.45,34.35,34.34,34.35h30.91c11.45,0,17.17,6.49,17.17,19.46v24.04c0,12.97-5.72,19.46-17.17,19.46h-35.49c-11.45,0-17.17-6.49-17.17-19.46v-11.72H6.58v11.72c0,26.71,13.35,40.07,40.07,40.07h35.49c26.71,0,40.07-13.35,40.07-40.07v-24.04c0-26.71-13.36-40.07-40.07-40.07Z"/>
          <polygon class="cls-1" points="124.89 0 124.89 20.84 164.4 20.84 164.4 171.9 187.3 171.9 187.3 20.84 226.59 20.84 226.59 0 124.89 0"/>
          <polygon class="cls-1" points="333.06 152.03 262.7 152.03 262.7 96.85 315.18 96.85 315.18 76.02 262.7 76.02 262.7 20.84 333.06 20.84 333.06 0 251.94 0 239.8 5.72 239.8 172.87 333.06 172.87 333.06 152.03"/>
          <polygon class="cls-1" points="451.32 152.03 380.96 152.03 380.96 96.85 433.44 96.85 433.44 76.02 380.96 76.02 380.96 20.84 451.32 20.84 451.32 0 370.2 0 358.07 5.72 358.07 172.87 451.32 172.87 451.32 152.03"/>
          <polygon class="cls-1" points="567.7 152.03 499.22 152.03 499.22 1.18 476.33 1.18 476.33 172.87 567.7 172.87 567.7 152.03"/>
        </g>
        <g>
          <polygon class="cls-1" points="206.76 321.79 144.51 321.79 144.51 272.98 190.93 272.98 190.93 254.55 144.51 254.55 144.51 205.73 206.76 205.73 206.76 187.3 135 187.3 124.26 192.37 124.26 340.23 206.76 340.23 206.76 321.79"/>
          <path class="cls-1" d="m89.1,295.07l-.49.23v11.14c0,11.48-5.06,17.22-15.19,17.22h-31.39c-10.13,0-15.19-5.74-15.19-17.22v-82.03c0-11.48,5.06-17.22,15.19-17.22h31.39c10.13,0,15.19,5.74,15.19,17.22v8.27h20.26v-8.27c0-23.63-11.82-35.45-35.45-35.45h-31.39c-23.63,0-35.45,11.82-35.45,35.45v82.03c0,23.63,11.81,35.45,35.45,35.45h31.39c23.63,0,35.45-11.81,35.45-35.45v-11.37h-19.77Z"/>
          <path class="cls-1" d="m228.88,341.88v-147.86l10.73-5.06h54.08c23.63,0,35.44,11.82,35.44,35.45v82.03c0,23.63-11.82,35.45-35.44,35.45h-64.82Zm20.25-18.23h44.56c10.13,0,15.19-5.74,15.19-17.22v-82.03c0-11.48-5.06-17.22-15.19-17.22h-44.56v116.47Z"/>
          <path class="cls-1" d="m364.75,338.42l.03-63.78h61.78l-.03,63.78h20.26l.03-114.01c0-23.63-11.82-35.45-35.45-35.45h-31.4c-23.63,0-35.45,11.82-35.45,35.45l-.03,114.01h20.26Zm.03-114.01c0-11.48,5.06-17.22,15.19-17.22h31.4c10.13,0,15.19,5.74,15.19,17.22v31.8h-61.78v-31.8Z"/>
          <path class="cls-1" d="m484.94,338.42l.03-48.18h24.61l33.39,48.18h24.72l-33.49-48.33c20.52-1.49,30.77-13.24,30.77-35.26v-30.4c0-23.64-11.82-35.47-35.45-35.47h-54.08l-10.73,5.06-.03,144.39h20.25Zm.03-131.23h44.56c10.13,0,15.19,5.74,15.19,17.22v30.38c0,11.48-5.06,17.22-15.19,17.22h-44.56v-64.82Z"/>
        </g>
      </g>
      <g>
        <path class="cls-1" d="m2.73,386.79c1.82-3.22,4.3-5.74,7.44-7.56,3.14-1.82,6.63-2.73,10.46-2.73,4.51,0,8.44,1.09,11.79,3.26,3.36,2.18,5.81,5.26,7.35,9.25h-6.46c-1.15-2.49-2.8-4.4-4.95-5.75-2.15-1.34-4.73-2.01-7.73-2.01s-5.47.67-7.76,2.01c-2.29,1.35-4.09,3.25-5.39,5.72-1.3,2.47-1.95,5.36-1.95,8.68s.65,6.15,1.95,8.62c1.31,2.47,3.1,4.38,5.39,5.72,2.29,1.35,4.88,2.02,7.76,2.02s5.58-.66,7.73-1.99,3.8-3.23,4.95-5.72h6.46c-1.54,3.95-3.99,7-7.35,9.15s-7.29,3.23-11.79,3.23c-3.83,0-7.32-.9-10.46-2.7-3.14-1.8-5.62-4.3-7.44-7.5-1.82-3.2-2.73-6.82-2.73-10.84s.91-7.65,2.73-10.88Z"/>
        <path class="cls-1" d="m108.16,416.07c-3.16-1.8-5.66-4.31-7.5-7.52-1.84-3.22-2.76-6.85-2.76-10.88s.92-7.65,2.76-10.88c1.83-3.22,4.33-5.73,7.5-7.53,3.16-1.8,6.66-2.69,10.49-2.69s7.39.9,10.55,2.69c3.16,1.8,5.65,4.3,7.47,7.5,1.82,3.2,2.72,6.83,2.72,10.9s-.91,7.7-2.72,10.9c-1.82,3.2-4.31,5.7-7.47,7.5-3.16,1.8-6.68,2.7-10.55,2.7s-7.33-.9-10.49-2.7Zm18.28-4c2.31-1.34,4.13-3.26,5.45-5.75,1.32-2.49,1.99-5.38,1.99-8.65s-.66-6.21-1.99-8.68c-1.32-2.47-3.13-4.38-5.42-5.72-2.29-1.34-4.9-2.01-7.82-2.01s-5.53.67-7.82,2.01c-2.29,1.35-4.1,3.25-5.42,5.72-1.32,2.47-1.99,5.36-1.99,8.68s.66,6.16,1.99,8.65c1.32,2.49,3.14,4.4,5.45,5.75s4.91,2.01,7.79,2.01,5.48-.67,7.8-2.01Z"/>
        <path class="cls-1" d="m231.14,418.35h-5.39l-21.69-32.89v32.89h-5.39v-41.37h5.39l21.69,32.83v-32.83h5.39v41.37Z"/>
        <path class="cls-1" d="m298.25,417.32c-2.16-.97-3.84-2.31-5.07-4.03-1.22-1.72-1.86-3.7-1.89-5.96h5.75c.2,1.94,1,3.57,2.4,4.89,1.4,1.32,3.44,1.99,6.13,1.99s4.59-.64,6.07-1.93,2.22-2.94,2.22-4.95c0-1.58-.44-2.86-1.3-3.85-.87-.99-1.96-1.74-3.26-2.25-1.31-.51-3.07-1.07-5.27-1.66-2.73-.71-4.91-1.42-6.55-2.13-1.64-.71-3.04-1.83-4.21-3.35-1.16-1.52-1.75-3.57-1.75-6.13,0-2.25.57-4.25,1.72-5.99,1.14-1.74,2.75-3.08,4.83-4.03,2.07-.94,4.45-1.42,7.14-1.42,3.87,0,7.04.97,9.51,2.9,2.47,1.94,3.86,4.51,4.18,7.7h-5.93c-.19-1.58-1.03-2.97-2.49-4.18-1.46-1.2-3.4-1.81-5.81-1.81-2.25,0-4.09.58-5.51,1.75-1.42,1.17-2.13,2.8-2.13,4.89,0,1.5.43,2.73,1.27,3.68.85.95,1.9,1.67,3.14,2.16s2.99,1.06,5.25,1.69c2.72.75,4.92,1.49,6.57,2.22,1.66.73,3.08,1.86,4.27,3.38,1.19,1.52,1.78,3.59,1.78,6.2,0,2.01-.53,3.91-1.6,5.69-1.06,1.78-2.64,3.22-4.74,4.32-2.09,1.11-4.56,1.66-7.41,1.66s-5.16-.49-7.32-1.45Z"/>
        <path class="cls-1" d="m384.69,377.04v26.14c0,3.68.9,6.4,2.69,8.18s4.3,2.67,7.5,2.67,5.64-.89,7.44-2.67c1.8-1.78,2.69-4.51,2.69-8.18v-26.14h5.39v26.08c0,3.44-.69,6.33-2.07,8.69-1.38,2.35-3.25,4.1-5.6,5.24-2.35,1.15-4.99,1.72-7.91,1.72s-5.57-.57-7.91-1.72c-2.35-1.14-4.21-2.89-5.57-5.24-1.37-2.35-2.05-5.25-2.05-8.69v-26.08h5.39Z"/>
        <path class="cls-1" d="m476.96,413.97h14.46v4.38h-19.85v-41.31h5.39v36.93Z"/>
        <path class="cls-1" d="m574.75,377.04v4.39h-11.26v36.92h-5.39v-36.92h-11.32v-4.39h27.98Z"/>
      </g>
    </g>
  </g>
</svg>