<?xml version="1.0" encoding="UTF-8"?>
<svg id="Layer_2" data-name="Layer 2" xmlns="http://www.w3.org/2000/svg" viewBox="0 0 842.4 407.26">
  <defs>
    <style>
      .cls-1 {
        fill: #f0d1c6;
      }

      .cls-1, .cls-2 {
        stroke-width: 0px;
      }

      .cls-2 {
        fill: #faaf40;
      }
    </style>
  </defs>
  <g id="Layer_1-2" data-name="Layer 1">
    <g>
      <g>
        <path class="cls-1" d="m131.38,257.86c0,3.08.17,6.09.49,9.06v-18.1c-.32,2.97-.49,5.98-.49,9.04Z"/>
        <path class="cls-1" d="m264.84,205.76c-.32-.32-.62-.62-.93-.91-8.13-7.89-17.27-13.58-27.33-17.04,2.7-2.31,5.28-4.77,7.81-7.41,7.04-7.36,12.9-15.39,17.51-23.92,8.34-15.36,12.65-32.45,12.65-50.48,0-28.44-10.8-54.28-31.26-74.74C222.84,10.82,196.74,0,167.8,0s-54.98,10.78-75.5,31.15c-20.61,20.46-31.49,46.28-31.49,74.72s10.57,53.84,30.54,74.53c8.34,8.62,17.59,15.6,27.59,20.82,10.63,5.56,22.11,9.15,34.21,10.7-6.3,7.64-10.8,16-13.5,25.04-1.97,6.62-2.95,13.6-2.95,20.9,0,19.93,7.28,37.56,21.62,52.42,14.47,15.02,32.11,22.62,52.42,22.62h2.27c20.48,0,38.13-7.58,52.46-22.54,14.13-14.77,21.33-32.38,21.33-52.37s-7.38-37.67-21.94-52.22Zm-145.32-42.46c-1.8-1.57-3.56-3.23-5.26-5.01-14.35-14.85-21.62-32.49-21.62-52.42s7.43-37.58,22.09-52.14c14.62-14.52,32.49-21.88,53.07-21.88s38.43,7.36,52.99,21.92c14.56,14.56,21.92,32.13,21.92,52.22,0,7.17-.93,14.03-2.78,20.56-3.27,11.69-9.46,22.35-18.53,31.81-.4.42-.83.85-1.25,1.27-14.09,14.11-31.32,21.26-51.21,21.26h-2.27c-4.03,0-7.98-.3-11.82-.91-13.11-2.06-24.96-7.66-35.33-16.7Zm118.5,121.74c-7.36,7.55-15.6,11.08-25.91,11.08s-18.87-3.67-26.42-11.2c-7.53-7.53-11.18-16.15-11.18-26.29,0-.68.02-1.36.04-2.02.47-9.36,4.16-17.4,11.23-24.62,7.53-7.64,16.11-11.37,26.21-11.37s18.46,3.56,25.91,11.2c2.04,2.08,3.78,4.24,5.24,6.49,3.91,6.01,5.84,12.67,5.84,20.18,0,10.31-3.59,18.99-10.95,26.55Z"/>
        <path class="cls-1" d="m193.96,133.05c6.45-6.6,9.99-14.09,10.78-22.75v-.02c.11-1.23.17-2.5.17-3.78,0-10.31-3.63-19.04-11.08-26.67-7.45-7.64-15.68-11.2-25.91-11.2s-18.67,3.71-26.21,11.37c-7.6,7.72-11.29,16.42-11.29,26.63,0,9.13,2.97,17.02,9.06,24,.68.78,1.4,1.55,2.14,2.29,7.53,7.53,16.19,11.18,26.42,11.18s18.55-3.5,25.91-11.06Z"/>
      </g>
      <path class="cls-1" d="m383.35,195.24c-9.84-7.32-20.48-11.03-31.62-11.03-7.35,0-14.32,1.24-20.8,3.7v-.91h-37.8v143.51h37.8v-90.72c0-4.91,1.85-9.02,5.82-12.95,4.03-3.98,8.23-5.83,13.21-5.83,3.11,0,7.95.7,14.03,6.78l25.36,25.34v-53.42l-5.99-4.45Z"/>
      <path class="cls-1" d="m491.76,186.99v81.11c0,7.62-2.79,13.88-8.77,19.69-6.11,5.93-12.58,8.7-20.37,8.7s-13.58-2.63-18.95-8.28c-5.58-5.86-8.17-12.25-8.17-20.11v-81.11h-37.8v81.11c0,17.96,6.28,33.46,18.67,46.07,12.46,12.68,28.02,19.11,46.25,19.11,10.88,0,20.65-2,29.15-5.92v3.14h37.8v-143.51h-37.8Z"/>
      <path class="cls-1" d="m668.05,206.13c-14.55-14.55-32.42-21.92-53.11-21.92-12.71,0-25.07,3.3-36.73,9.82v-82.9h-37.8v219.37h37.8v-7.27c11.77,6.67,24.13,10.05,36.73,10.05,20.69,0,38.57-7.38,53.12-21.93,14.55-14.55,21.93-32.25,21.93-52.61s-7.38-38.05-21.93-52.61Zm-52.73,90.35c-10.24,0-18.88-3.66-26.42-11.2-7.54-7.54-11.2-16.14-11.2-26.29s3.69-18.91,11.29-26.63c7.53-7.65,16.1-11.37,26.21-11.37s18.45,3.56,25.91,11.2c7.45,7.64,11.08,16.37,11.08,26.68s-3.58,18.99-10.95,26.55c-7.37,7.55-15.6,11.07-25.91,11.07Z"/>
      <path class="cls-1" d="m804.59,186.99v6.86c-11.62-6.4-23.97-9.64-36.73-9.64-20.51,0-38.32,7.36-52.95,21.89-14.66,14.56-22.09,32.27-22.09,52.65s7.43,38.1,22.09,52.64c14.62,14.53,32.44,21.89,52.95,21.89,12.99,0,25.34-3.27,36.73-9.73v6.95h37.8v-143.51h-37.8Zm.51,71.88c0,10.31-3.58,19-10.95,26.55-7.37,7.55-15.6,11.07-25.91,11.07s-18.88-3.66-26.42-11.2c-7.54-7.54-11.2-16.14-11.2-26.29s3.69-18.91,11.28-26.63c7.53-7.65,16.1-11.37,26.21-11.37s18.45,3.56,25.91,11.2c7.45,7.64,11.08,16.37,11.08,26.68Z"/>
      <path class="cls-1" d="m364.39,51.33c-12.47-12.68-28.02-19.11-46.25-19.11-10.88,0-20.65,2-29.15,5.92v-3.14h-37.8v143.51h37.8v-81.11c0-7.62,2.79-13.88,8.77-19.69,6.11-5.93,12.58-8.7,20.37-8.7s13.58,2.63,18.95,8.28c5.58,5.86,8.17,12.25,8.17,20.11v81.11c4.95-.4,12.19-.42,20.58,1.6,7.39,1.78,13.19,4.56,17.22,6.88v-89.59c0-17.96-6.28-33.46-18.68-46.07Z"/>
      <path class="cls-1" d="m484.38,139.8c-5.76,3.33-12.21,4.95-19.74,4.95-2.37,0-4.85-.43-7.44-1.28l75.78-74.82-9.52-10.54c-15.36-17.01-34.13-25.64-55.79-25.64s-39.59,7.36-54.21,21.89c-14.66,14.56-22.09,32.1-22.09,52.14s7.44,37.66,22.11,52.53c14.72,14.93,32.36,22.51,52.43,22.51h2.28c21.3,0,39.63-8.27,54.48-24.58l3.87-4.25v-67.26l-27.17,40.31c-3.99,5.92-8.89,10.51-14.98,14.03Zm-18.86-70.53c4.12,0,8.02.58,11.73,1.76l-46.46,46.14c-1.08-3.58-1.62-7.37-1.62-11.42,0-9.47,3.66-17.74,11.2-25.28,7.54-7.54,15.76-11.2,25.15-11.2Z"/>
      <path class="cls-1" d="m131.87,212.45v126.09c0,19.01-6.73,35.4-20.03,48.68-13.28,13.31-29.75,20.03-48.94,20.03-22.68,0-41.74-9.27-55.07-26.84l-3.23-4.27,2.76-68.84,25.63,43.99c3.52,6.03,7.98,10.7,13.65,14.24,5.31,3.33,10.61,4.94,16.26,4.94,8.59,0,15.56-2.95,21.92-9.23,6.3-6.26,9.25-13.24,9.25-21.94v-16.93c-8.28,3.65-17.8,5.52-28.39,5.52-18,0-33.59-6.43-46.37-19.1-12.82-12.71-19.31-28.2-19.31-46.07v-81.13h37.79v81.13c0,7.72,2.7,14.05,8.47,19.88,5.75,5.79,11.99,8.49,19.67,8.49s13.92-2.7,19.67-8.49c5.77-5.84,8.47-12.16,8.47-19.88v-72.36c6.96,6.2,14.47,11.42,22.39,15.55,4.97,2.59,10.1,4.77,15.41,6.54Z"/>
      <polygon class="cls-2" points="452.33 179.9 425.01 144.5 464.97 144.5 481.41 179.9 452.33 179.9"/>
      <polygon class="cls-1" points="815.58 143.78 788.27 179.18 759.19 179.18 775.12 143.78 815.58 143.78"/>
      <g>
        <path class="cls-1" d="m164.38,401.26c-3.86,0-7.54-.64-11.07-1.93-3.52-1.29-6.68-3.19-9.47-5.7-2.8-2.51-5-5.62-6.62-9.3-1.62-3.69-2.43-7.94-2.43-12.74,0-4.36.77-8.35,2.31-11.99,1.54-3.63,3.7-6.8,6.5-9.51,2.79-2.71,6.08-4.81,9.85-6.29,3.77-1.48,7.89-2.22,12.37-2.22s8.56.7,12.28,2.1c3.72,1.4,6.89,3.52,9.52,6.37l-3.86,3.94c-2.46-2.46-5.17-4.22-8.13-5.28-2.96-1.06-6.15-1.59-9.56-1.59-3.63,0-6.97.6-10.02,1.8-3.05,1.2-5.7,2.91-7.96,5.11-2.26,2.21-4.02,4.81-5.28,7.8-1.26,2.99-1.89,6.25-1.89,9.77,0,3.91.67,7.36,2.01,10.35,1.34,2.99,3.13,5.52,5.37,7.59,2.23,2.07,4.78,3.65,7.63,4.74s5.81,1.63,8.89,1.63c3.35,0,6.65-.67,9.89-2.01,3.24-1.34,6.04-3.41,8.38-6.2l2.6,4.11c-2.29,3.19-5.32,5.56-9.1,7.12-3.77,1.57-7.84,2.35-12.2,2.35Zm17.44-.5v-7.88l-.5-.84v-20.62h5.95v29.34h-5.45Z"/>
        <path class="cls-1" d="m203.11,400.76v-58.68h6.2v58.68h-6.2Z"/>
        <path class="cls-1" d="m226.75,400.76v-58.68h21.96c4.97,0,9.25.8,12.83,2.39,3.58,1.59,6.33,3.88,8.26,6.87,1.93,2.99,2.89,6.61,2.89,10.86s-.96,7.7-2.89,10.69c-1.93,2.99-4.68,5.28-8.26,6.87-3.58,1.59-7.85,2.39-12.83,2.39h-18.53l2.77-2.85v21.46h-6.2Zm6.2-20.96l-2.77-2.93h18.36c5.87,0,10.32-1.29,13.37-3.86,3.05-2.57,4.57-6.17,4.57-10.81s-1.52-8.33-4.57-10.9c-3.05-2.57-7.5-3.86-13.37-3.86h-18.36l2.77-2.93v35.29Zm33.87,20.96l-15.09-21.29h6.71l15.17,21.29h-6.79Z"/>
        <path class="cls-1" d="m285.68,400.76v-58.68h6.2v53.32h32.86v5.37h-39.07Z"/>
        <path class="cls-1" d="m359.87,395.39h35.29v5.37h-41.5v-58.68h40.24v5.36h-34.04v47.95Zm-.67-27.08h31.02v5.28h-31.02v-5.28Z"/>
        <path class="cls-1" d="m408.07,400.76v-58.68h23.89c6.26,0,11.75,1.24,16.47,3.73,4.72,2.49,8.4,5.94,11.02,10.35,2.63,4.42,3.94,9.5,3.94,15.26s-1.31,10.84-3.94,15.26c-2.63,4.42-6.3,7.87-11.02,10.35-4.72,2.49-10.21,3.73-16.47,3.73h-23.89Zm6.2-5.37h17.35c5.2,0,9.71-1.02,13.54-3.06,3.83-2.04,6.8-4.86,8.93-8.47,2.12-3.61,3.19-7.75,3.19-12.45s-1.06-8.91-3.19-12.49c-2.12-3.58-5.1-6.38-8.93-8.42-3.83-2.04-8.34-3.06-13.54-3.06h-17.35v47.95Z"/>
        <path class="cls-1" d="m499.28,401.26c-7.49,0-13.39-2.15-17.69-6.46-4.3-4.3-6.46-10.67-6.46-19.11v-33.62h6.2v33.36c0,6.93,1.56,12.04,4.69,15.34,3.13,3.3,7.54,4.95,13.25,4.95s10.2-1.65,13.33-4.95c3.13-3.3,4.69-8.41,4.69-15.34v-33.36h6.04v33.62c0,8.44-2.14,14.81-6.41,19.11-4.28,4.3-10.16,6.46-17.65,6.46Z"/>
        <path class="cls-1" d="m565.84,401.26c-4.42,0-8.5-.74-12.24-2.22-3.75-1.48-6.99-3.56-9.72-6.25-2.74-2.68-4.88-5.84-6.41-9.47-1.54-3.63-2.31-7.6-2.31-11.9s.77-8.27,2.31-11.9c1.54-3.63,3.69-6.79,6.46-9.47s6.02-4.76,9.77-6.25c3.74-1.48,7.82-2.22,12.24-2.22s8.24.71,11.99,2.14c3.74,1.43,6.9,3.56,9.47,6.41l-3.94,3.94c-2.4-2.46-5.06-4.23-7.96-5.32-2.91-1.09-6.04-1.63-9.39-1.63-3.52,0-6.79.6-9.81,1.8-3.02,1.2-5.65,2.91-7.88,5.11-2.24,2.21-3.98,4.78-5.24,7.71-1.26,2.93-1.89,6.16-1.89,9.68s.63,6.75,1.89,9.68c1.26,2.93,3,5.5,5.24,7.71,2.23,2.21,4.86,3.91,7.88,5.11,3.02,1.2,6.29,1.8,9.81,1.8s6.48-.56,9.39-1.68c2.91-1.12,5.56-2.91,7.96-5.37l3.94,3.94c-2.57,2.85-5.73,5-9.47,6.46-3.74,1.45-7.77,2.18-12.07,2.18Z"/>
        <path class="cls-1" d="m588.06,400.76l26.83-58.68h6.12l26.83,58.68h-6.54l-24.65-55.08h2.51l-24.65,55.08h-6.46Zm10.56-15.68l1.84-5.03h34.12l1.84,5.03h-37.81Z"/>
        <path class="cls-1" d="m664.34,400.76v-53.32h-20.62v-5.36h47.45v5.36h-20.62v53.32h-6.2Z"/>
        <path class="cls-1" d="m699.38,400.76v-58.68h6.2v58.68h-6.2Z"/>
        <path class="cls-1" d="m748.68,401.26c-4.42,0-8.51-.74-12.28-2.22-3.77-1.48-7.04-3.58-9.81-6.29-2.77-2.71-4.92-5.87-6.46-9.47-1.54-3.61-2.31-7.56-2.31-11.86s.77-8.26,2.31-11.86c1.54-3.6,3.69-6.76,6.46-9.47s6.02-4.81,9.77-6.29c3.74-1.48,7.85-2.22,12.32-2.22s8.49.74,12.24,2.22c3.74,1.48,7,3.56,9.77,6.25,2.77,2.68,4.92,5.84,6.46,9.47,1.54,3.63,2.31,7.6,2.31,11.9s-.77,8.27-2.31,11.9c-1.54,3.63-3.69,6.79-6.46,9.47-2.77,2.68-6.02,4.77-9.77,6.25-3.75,1.48-7.83,2.22-12.24,2.22Zm0-5.53c3.52,0,6.78-.6,9.77-1.8,2.99-1.2,5.59-2.91,7.8-5.11,2.21-2.21,3.93-4.78,5.16-7.71,1.23-2.93,1.84-6.16,1.84-9.68s-.62-6.75-1.84-9.68c-1.23-2.93-2.95-5.5-5.16-7.71-2.21-2.21-4.81-3.91-7.8-5.11-2.99-1.2-6.25-1.8-9.77-1.8s-6.79.6-9.81,1.8c-3.02,1.2-5.63,2.91-7.84,5.11-2.21,2.21-3.94,4.78-5.2,7.71-1.26,2.93-1.89,6.16-1.89,9.68s.63,6.68,1.89,9.64c1.26,2.96,2.99,5.55,5.2,7.75,2.21,2.21,4.82,3.91,7.84,5.11,3.02,1.2,6.29,1.8,9.81,1.8Z"/>
        <path class="cls-1" d="m791.68,400.76v-58.68h5.11l40.49,50.97h-2.68v-50.97h6.12v58.68h-5.11l-40.41-50.97h2.68v50.97h-6.2Z"/>
      </g>
    </g>
  </g>
</svg>