<?xml version="1.0" encoding="UTF-8"?>
<svg id="Layer_2" data-name="Layer 2" xmlns="http://www.w3.org/2000/svg" viewBox="0 0 573.87 181.98">
  <defs>
    <style>
      .cls-1 {
        fill: #0f1a22;
        stroke-width: 0px;
      }
    </style>
  </defs>
  <g id="Layer_1-2" data-name="Layer 1">
    <g>
      <path class="cls-1" d="m313.63,86.95v3.62c9.79,9.38,15.9,22.56,15.9,37.16,0,28.44-23.14,51.58-51.58,51.58s-51.58-23.14-51.58-51.58c0-14.77,6.27-28.08,16.26-37.49v-3.55c-11.55,9.95-18.93,24.63-18.93,41.04,0,29.91,24.34,54.25,54.25,54.25s54.25-24.34,54.25-54.25c0-16.25-7.21-30.84-18.57-40.79h0Z"/>
      <path class="cls-1" d="m313.63,113.97c0,.36.05.67-.08.99-.9,2.29-.09,4.58.02,6.91.12,2.38.03,4.78-.06,7.16-.08,2.25-.38,4.49-.88,6.69-.98,4.25-2.75,8.3-5.19,11.91-2.4,3.56-5.46,6.67-8.96,9.16-3.5,2.49-7.56,4.37-11.77,5.45-2.86.73-5.81,1.09-8.77,1.09-19.63,0-35.6-15.97-35.6-35.6,0-1.44.1-2.85.26-4.24v-10.33c-1.87,4.49-2.93,9.4-2.93,14.57,0,21.1,17.17,38.26,38.26,38.26s38.26-17.17,38.26-38.26c0-4.85-.92-9.49-2.58-13.77h0Z"/>
      <path class="cls-1" d="m266.44,128.15c-2.85-2.73-4.27-6.12-4.27-10.18s1.42-7.45,4.27-10.18c2.85-2.72,6.47-4.09,10.88-4.09s7.84,1.37,10.62,4.09c2.79,2.73,4.18,6.12,4.18,10.18s-1.39,7.46-4.18,10.18-6.33,4.09-10.62,4.09-8.04-1.37-10.88-4.09Z"/>
      <path class="cls-1" d="m4.73,87.46c3.16-5.81,7.53-10.33,13.12-13.53,5.6-3.2,11.99-4.81,19.21-4.81,9.29,0,16.98,2.33,23.07,6.97,6.09,4.64,10.17,11.16,12.25,19.55h-20.44c-1.08-3.24-2.91-5.79-5.48-7.64-2.57-1.85-5.75-2.77-9.53-2.77-5.41,0-9.69,1.96-12.85,5.89-3.16,3.92-4.74,9.5-4.74,16.71s1.57,12.65,4.74,16.57c3.16,3.92,7.44,5.89,12.85,5.89,7.67,0,12.67-3.43,15.02-10.28h20.44c-2.07,8.12-6.18,14.57-12.31,19.35-6.13,4.78-13.8,7.17-23,7.17-7.22,0-13.62-1.6-19.21-4.81-5.6-3.2-9.97-7.71-13.12-13.53-3.16-5.81-4.74-12.61-4.74-20.36s1.57-14.55,4.74-20.36v-.03Z"/>
      <path class="cls-1" d="m100.12,141.72c-5.78-3.2-10.31-7.74-13.6-13.6-3.3-5.86-4.94-12.63-4.94-20.29s1.7-14.43,5.08-20.29c3.38-5.86,8.01-10.4,13.87-13.6,5.86-3.2,12.4-4.81,19.62-4.81s13.76,1.6,19.63,4.81c5.86,3.2,10.49,7.74,13.87,13.6,3.38,5.87,5.08,12.63,5.08,20.29s-1.74,14.43-5.21,20.29c-3.48,5.87-8.17,10.4-14.08,13.6-5.91,3.2-12.51,4.81-19.82,4.81s-13.72-1.6-19.48-4.81h0Zm29.16-14.21c3.02-1.67,5.44-4.17,7.24-7.51s2.7-7.4,2.7-12.18c0-7.12-1.87-12.61-5.62-16.44s-8.32-5.75-13.74-5.75-9.95,1.92-13.6,5.75c-3.66,3.83-5.48,9.32-5.48,16.44s1.78,12.61,5.34,16.44c3.56,3.83,8.06,5.75,13.46,5.75,3.43,0,6.65-.83,9.68-2.51h0Z"/>
      <path class="cls-1" d="m243.93,97.26c-.19-2.44-.57-4.74-1.13-6.88-.24-.96-.55-1.89-.87-2.8-8.37,7.5-14.38,17.59-16.78,29v22.2l1.85,6.54h17.1v-43.98c0-1.41-.06-2.76-.17-4.08h0Zm-8.08-19.55c-5.51-5.62-12.72-8.46-21.65-8.46-4.7,0-9.01.94-12.94,2.78-3.93,1.86-7.14,4.4-9.68,7.65v-9.34h-18.95v74.97h18.95v-41.41c0-5.95,1.53-10.54,4.55-13.74,3.01-3.19,7.14-4.81,12.37-4.81s9.2,1.62,12.18,4.81c2.38,2.55,3.82,5.99,4.27,10.3,3.61-6.97,8.54-13.15,14.45-18.19-1.02-1.66-2.2-3.18-3.55-4.57h0Z"/>
      <path class="cls-1" d="m339.66,129.34c-.79,0-1.51-.04-2.16-.13-.13,5.58-1.06,10.98-2.65,16.07.55.02,1.11.04,1.7.04h11.92v-15.98h-8.81Zm-7.95-6.27c-1.26-14.68-8.42-27.72-19.12-36.69v35.65c0,9.39,2.93,15.96,8.8,19.66,1.53.98,3.23,1.75,5.15,2.31.83.26,1.7.47,2.61.64,1.78-5.34,2.74-11.03,2.74-16.95,0-1.53-.06-3.04-.19-4.55v-.08Zm-.04-52.71v-18.53h-19.08v18.53h-8.93v3.61c12.22,5.88,22.12,15.79,28,28v-16.05h16.78v-15.56h-16.78,0Zm-28,9.94v5.62h8.35c-2.59-2.12-5.37-4-8.35-5.62Z"/>
      <path class="cls-1" d="m431.27,113.51h-54.81c.45,5.42,2.35,9.66,5.68,12.72,3.34,3.07,7.44,4.6,12.31,4.6,7.04,0,12.04-3.01,15.02-9.06h20.44c-2.17,7.22-6.31,13.15-12.45,17.79-6.13,4.64-13.67,6.97-22.59,6.97-7.22,0-13.69-1.6-19.42-4.81-5.73-3.2-10.19-7.74-13.4-13.6-3.2-5.86-4.81-12.63-4.81-20.29s1.57-14.57,4.74-20.43c3.16-5.86,7.58-10.37,13.26-13.53s12.22-4.74,19.63-4.74,13.51,1.54,19.14,4.6c5.63,3.07,10.02,7.42,13.12,13.06,3.11,5.64,4.67,12.11,4.67,19.42,0,2.7-.18,5.14-.54,7.31h0Zm-19.08-12.72c-.09-4.87-1.85-8.77-5.28-11.7-3.43-2.93-7.62-4.4-12.59-4.4-4.69,0-8.64,1.42-11.84,4.26-3.2,2.85-5.16,6.78-5.89,11.84h35.6Z"/>
      <path class="cls-1" d="m508.8,77.72c5.5,5.63,8.25,13.51,8.25,23.61v43.97h-18.95v-41.41c0-5.95-1.49-10.53-4.47-13.74-2.98-3.2-7.04-4.81-12.17-4.81s-9.36,1.6-12.38,4.81c-3.02,3.2-4.53,7.78-4.53,13.74v41.41h-18.95v-74.96h18.95v9.34c2.53-3.25,5.75-5.79,9.68-7.64,3.92-1.85,8.23-2.78,12.93-2.78,8.93,0,16.15,2.82,21.65,8.46h0Z"/>
      <path class="cls-1" d="m557.1,85.91v36.26c0,2.53.61,4.35,1.83,5.48s3.27,1.7,6.15,1.7h8.79v15.97h-11.91c-15.97,0-23.95-7.75-23.95-23.27v-36.13h-8.93v-15.56h8.93v-18.54h19.08v18.54h16.78v15.56h-16.78,0Z"/>
      <g>
        <path class="cls-1" d="m54.37.4v44.2h-4.48V9.23l-17.36,29.73h-2.21L12.95,9.42v35.16h-4.48V.39h3.85l19.19,32.77L50.51.39h3.86Z"/>
        <path class="cls-1" d="m110.44,29.31v15.28h-4.61v-15.28L88.16.4h4.98l15.15,24.82L123.44.4h4.67l-17.68,28.92h0Z"/>
        <path class="cls-1" d="m204.95.4h4.67v40.16h24.75v4.04h-29.42V.4h0Z"/>
        <path class="cls-1" d="m268.66.4h4.67v44.2h-4.67V.4Z"/>
        <path class="cls-1" d="m318.91,4.44v17.36h22.86v4.04h-22.86v18.75h-4.67V.4h30.3v4.04h-25.64,0Z"/>
        <path class="cls-1" d="m411.97,40.55v4.04h-31.25V.4h30.3v4.04h-25.64v15.72h22.86v3.98h-22.86v16.41h26.59Z"/>
        <path class="cls-1" d="m492.53.4h4.67v44.2h-4.67V.4Z"/>
        <path class="cls-1" d="m540.86,43.39c-3.01-1.06-5.33-2.44-6.98-4.16l1.83-3.6c1.6,1.6,3.72,2.89,6.38,3.88,2.65.99,5.39,1.48,8.21,1.48,3.96,0,6.92-.73,8.9-2.18,1.98-1.45,2.97-3.34,2.97-5.65,0-1.77-.54-3.18-1.61-4.23s-2.39-1.87-3.95-2.43c-1.55-.57-3.72-1.19-6.5-1.87-3.33-.84-5.97-1.65-7.95-2.43s-3.67-1.97-5.08-3.57c-1.41-1.6-2.12-3.77-2.12-6.5,0-2.23.59-4.26,1.77-6.1,1.18-1.83,2.99-3.29,5.43-4.39,2.44-1.09,5.47-1.64,9.09-1.64,2.53,0,4.99.35,7.41,1.05s4.51,1.65,6.28,2.87l-1.58,3.73c-1.86-1.22-3.83-2.14-5.94-2.75-2.1-.61-4.16-.91-6.19-.91-3.87,0-6.78.74-8.74,2.24s-2.94,3.42-2.94,5.78c0,1.77.54,3.18,1.61,4.26,1.07,1.07,2.42,1.89,4.04,2.46,1.62.57,3.8,1.19,6.54,1.87,3.24.8,5.86,1.59,7.86,2.36,2,.78,3.69,1.96,5.08,3.53,1.38,1.58,2.08,3.71,2.08,6.41,0,2.23-.6,4.26-1.8,6.1-1.2,1.83-3.04,3.29-5.52,4.35-2.49,1.07-5.53,1.61-9.16,1.61-3.28,0-6.44-.53-9.44-1.58l.02.02Z"/>
      </g>
    </g>
  </g>
</svg>