<?xml version="1.0" encoding="UTF-8"?>
<svg id="Layer_2" data-name="Layer 2" xmlns="http://www.w3.org/2000/svg" viewBox="0 0 267.78 267.78">
  <defs>
    <style>
      .cls-1 {
        fill: #fff6f0;
        stroke-width: 0px;
      }
    </style>
  </defs>
  <g id="Layer_1-2" data-name="Layer 1">
    <g>
      <path class="cls-1" d="m66.63,173.73c.17.09.4.2.7.32.66.25,3.12.85,11.87.85,3.34,0,6.39-.16,9.15-.45-5.22-1.22-9.8-1.85-13.66-1.85-5.34,0-7.35.73-8.06,1.13Z"/>
      <path class="cls-1" d="m200.66,96.9c-.9-.71-1.99-1.07-3.31-1.07-3.83,0-8.66,1.76-14.37,5.22-2.89,1.76-5.85,3.96-8.88,6.63-3.16,2.78-6.38,6.04-9.66,9.77-1.24,1.41-2.44,2.82-3.58,4.22-.42.51-.81,1.02-1.22,1.53,17.37-7.39,31.21-15.31,41.99-23.28.06-.37.1-.72.1-1.04,0-.53-.12-1.22-1.07-1.99Z"/>
      <path class="cls-1" d="m118.15,144.82c-3.34,0-6.35-.22-9.04-.65-17.59,7.4-31.6,15.36-42.51,23.36,3.27-.92,7-.92,8.85-.92,9.29,0,18.61,1.49,27.74,4.42,10.14-3.29,20.53-12.57,30.92-27.61-5.28.93-10.62,1.39-15.95,1.39Z"/>
      <path class="cls-1" d="m116.89,171.72c-1.13.6-2.33,1.16-3.61,1.7,1.14.23,2.24.42,3.31.59.48-.97.96-1.95,1.44-2.94-.38.22-.77.45-1.14.65Z"/>
      <path class="cls-1" d="m150.3,92.46c-8.65.03-17.65,1.52-26.76,4.45-1.4.45-2.73.94-4.02,1.46,1.42,3.96,2.99,8.04,4.73,12.24-1.74-4.2-3.51-8.19-5.31-11.99-6.79,2.78-12.21,6.48-16.09,11.05-2.49,2.93-4.3,5.83-5.47,8.7,4.17,2,8.57,3.96,13.23,5.89-4.65-1.92-9.14-3.65-13.5-5.18-.83,2.24-1.27,4.46-1.27,6.64,0,3.51,1.63,6.55,5,9.3,3.46,2.83,9.4,4.27,17.65,4.27,6.3,0,13.01-.76,19.97-2.28,8.99-14.51,19.32-25.97,30.72-34.07,11.95-8.5,21.17-12.63,28.2-12.63,2.83,0,5.19.83,7.03,2.48,1.03.92,1.79,2.02,2.28,3.25,69.73-56.71-10.92-111.46-63.13,14.58,2.62-6.32,4.86-12.36,6.76-18.14Z"/>
      <path class="cls-1" d="m202.2,110.59c-.86,1.01-1.82,2.03-2.9,3.07-.97.94-2.02,1.88-3.17,2.83-2.53,2.12-5.49,4.3-8.89,6.56-.02.02-.06.03-.08.06-5.4,3.57-10.93,6.69-16.56,9.33-3.26,1.53-6.55,2.9-9.86,4.1-4.26,1.56-8.56,2.85-12.9,3.86-5,7.13-8.78,12.22-11.21,15.14-2.58,3.09-5.72,6.15-9.34,9.11-2.8,2.28-5.53,4.21-8.14,5.78-.45,1.26-.88,2.51-1.29,3.75,2.4.33,4.63.52,6.63.52,4.5,0,9.45-.68,14.73-2.02,2.85-.72,5.8-2.06,8.82-3.93-1.36-3.76-2.85-7.62-4.49-11.59,61.09,147.48,161.12,47.45,13.64-13.64,8.64,3.58,16.77,6.46,24.4,8.73,1.41-1.13,2.83-2.33,4.24-3.66,2.18-2.05,4.14-4.71,5.89-7.9.73.65,1.58,1.12,2.47,1.52.35.33.73.61,1.15.84.32.25.65.48,1.02.66-2.16,3.71-4.92,7.16-8.21,10.36,101.29,26.5,105.98-59.57,14.08-43.5Z"/>
      <path class="cls-1" d="m159.57,131.22c3.81-1.39,7.46-2.93,10.94-4.63,5.57-2.7,10.71-5.78,15.41-9.24,1.61-1.18,3.06-2.31,4.36-3.38.5-.41.96-.8,1.42-1.19-9.76,2.35-20.46,5.78-32.1,10.48-2.8,3.53-5.31,7.02-7.47,10.42,2.54-.75,5.03-1.57,7.45-2.46Z"/>
      <path class="cls-1" d="m100.05,177.67c-6.51,1.84-13.54,2.77-20.9,2.77-9.49,0-12.54-.71-14.01-1.25-3.83-1.39-4.63-3.61-4.63-5.23,0-.74.14-1.39.35-1.99-64.53,52.77.97,103.64,52.4,8.47-4.48-.49-8.9-1.42-13.2-2.78Z"/>
      <path class="cls-1" d="m150.39,86.9c.54,0,1.1.02,1.66.03,35.49-117.75-74.65-115.88-34.53,5.61,9.77-3.74,20.78-5.64,32.87-5.64Z"/>
      <path class="cls-1" d="m120.91,180.88c-1.71,0-3.42-.07-5.12-.19-35.76,118.3,75.35,116.09,34.09-6.64-8.01,4.5-17.67,6.83-28.97,6.83Z"/>
      <path class="cls-1" d="m91.11,115.24c2.5-7.27,8.22-13.44,17.16-18.4,2.55-1.41,5.21-2.67,7.96-3.78C58.12-22.32-22.07,56.89,91.11,115.24Z"/>
      <path class="cls-1" d="m109.07,144.16c-5.5-.89-9.7-2.7-12.69-5.45-4.45-4.1-6.72-9.03-6.72-14.66,0-2.5.33-4.88.95-7.17-126.68-40.6-120.53,83.92,18.46,27.28Z"/>
    </g>
  </g>
</svg>