<?xml version="1.0" encoding="UTF-8"?>
<svg id="Layer_2" data-name="Layer 2" xmlns="http://www.w3.org/2000/svg" viewBox="0 0 320.86 207.87">
  <defs>
    <style>
      .cls-1 {
        fill: #2d6e54;
      }

      .cls-1, .cls-2 {
        stroke-width: 0px;
      }

      .cls-2 {
        fill: #fdc66f;
      }
    </style>
  </defs>
  <g id="Layer_1-2" data-name="Layer 1">
    <g>
      <g>
        <path class="cls-1" d="m87.02,98.46v-27.81c-2.72,5.69-4.1,11.24-4.1,16.61,0,4.07,1.35,7.72,4.1,11.2Z"/>
        <path class="cls-1" d="m40.65,10.93c1.18,2.36,1.77,5.51,1.77,9.45v150.92c15.02.75,30.06,3.21,44.91,7.37-.19-1.27-.31-2.63-.31-4.15v-46.59c-4.78-2.17-8.91-4.85-12.41-8.07-10.96-10.09-16.51-22.27-16.51-36.21,0-21.72,9.72-40.12,28.93-54.88v-8.4c0-3.94.64-7.09,1.92-9.45,1.28-2.36,3.88-4.23,7.83-5.61l5.91-2.36V0H26.77v2.95l5.91,2.36c4.13,1.38,6.79,3.25,7.97,5.61Z"/>
      </g>
      <path class="cls-2" d="m314.53,15.28c-4.02-3.6-9.18-5.42-15.37-5.42-15.35,0-35.51,9.02-61.63,27.6-24.91,17.7-47.48,42.75-67.14,74.47-15.21,3.32-29.88,4.99-43.65,4.99-18.02,0-31.01-3.14-38.57-9.32-7.35-6.01-10.92-12.66-10.92-20.34,0-11.32,5.15-23.12,15.31-35.06,10.35-12.18,25.57-21.55,45.24-27.87,20.12-6.47,40.01-9.74,59.09-9.74,6.1,0,11.92.25,17.29.79l5.34.52,1.22-12.14-5.43-.47c-6.62-.56-12.95-.84-18.83-.84-35.13,0-66.1,7.32-92.06,21.72-26.99,14.99-40.67,35-40.67,59.48,0,12.3,4.95,23.08,14.69,32.04,9.76,8.98,25.32,13.36,47.59,13.36,11.66,0,23.33-1.02,34.86-3.05-22.72,32.87-45.42,53.15-67.59,60.34-19.94-6.4-40.33-9.67-60.63-9.67-8.09,0-32.67,0-32.67,16.09,0,3.53,1.76,8.37,10.13,11.42,3.21,1.17,9.88,2.73,30.63,2.73,16.1,0,31.45-2.04,45.69-6.06,14.7,4.66,30.04,7.01,45.6,7.01,32.67,0,59.3-8.66,79.24-25.82-.84-4.16-1.33-8.73-1.33-13.74,0-.41,0-.82.02-1.26l-2.8,2.47c-12.18,10.74-23.99,17.63-35.13,20.44-11.53,2.92-22.36,4.41-32.19,4.41-7.03,0-15.22-.95-24.5-2.82,2.8-1.17,5.42-2.4,7.89-3.71,7.17-3.8,14.83-9,22.74-15.44,7.91-6.46,14.78-13.14,20.41-19.9,5.33-6.38,13.57-17.52,24.51-33.1,9.49-2.22,18.9-5.04,28.21-8.45,7.24-2.64,14.44-5.63,21.55-8.97,12.3-5.77,24.39-12.59,36.19-20.39.05-.05.13-.09.18-.13,7.44-4.95,13.92-9.72,19.44-14.35,2.51-2.08,4.81-4.14,6.92-6.19,7.8-7.5,12.95-14.6,15.51-21.38,1.29-3.39,1.94-6.71,1.94-9.93,0-5.7-2.19-10.67-6.33-14.36ZM40.89,194.8c-19.13,0-24.51-1.29-25.95-1.85-.65-.27-1.15-.5-1.52-.7,1.54-.88,5.94-2.47,17.61-2.47,8.45,0,18.45,1.36,29.86,4.03-6.03.65-12.7.99-19.99.99ZM283.69,61.63c-2.85,2.35-6.03,4.81-9.54,7.39-10.26,7.55-21.5,14.29-33.68,20.19-7.6,3.71-15.58,7.08-23.9,10.11-5.29,1.94-10.72,3.73-16.28,5.38,5.43-8.55,11.82-17.34,19.1-26.25,2.49-3.05,5.11-6.13,7.82-9.22,7.15-8.16,14.2-15.28,21.11-21.36,6.63-5.83,13.11-10.65,19.42-14.49,12.48-7.57,23.04-11.4,31.42-11.4,2.89,0,5.25.77,7.23,2.33,2.08,1.67,2.35,3.19,2.35,4.34,0,2.33-.7,5.33-2.76,9.11-3.25,5.92-9.81,13.74-22.27,23.87Z"/>
    </g>
  </g>
</svg>