<?xml version="1.0" encoding="UTF-8"?>
<svg id="Layer_2" data-name="Layer 2" xmlns="http://www.w3.org/2000/svg" viewBox="0 0 936.35 276.48">
  <defs>
    <style>
      .cls-1 {
        fill: #00141e;
        stroke-width: 0px;
      }
    </style>
  </defs>
  <g id="Layer_1-2" data-name="Layer 1">
    <g>
      <g>
        <path class="cls-1" d="m800.86.9v8.4h-14.2v39.06h-9.98V9.3h-14.26V.9h38.44Z"/>
        <path class="cls-1" d="m841.75,9.3h-25.11v10.08h23.05v8.24h-23.05v12.2h26.27v8.53h-35.97V.9h34.81v8.4Z"/>
        <path class="cls-1" d="m855.17,5.86c3.82-3.91,8.68-5.86,14.59-5.86,7.9,0,13.68,2.62,17.33,7.86,2.02,2.94,3.1,5.89,3.25,8.85h-9.92c-.63-2.27-1.44-3.99-2.43-5.15-1.77-2.06-4.39-3.09-7.85-3.09s-6.32,1.45-8.36,4.36c-2.04,2.91-3.06,7.02-3.06,12.35s1.08,9.31,3.23,11.96c2.15,2.65,4.89,3.98,8.2,3.98s6-1.14,7.78-3.41c.99-1.22,1.81-3.06,2.46-5.51h9.85c-.85,5.18-3.02,9.38-6.52,12.62-3.49,3.24-7.97,4.86-13.42,4.86-6.75,0-12.06-2.19-15.93-6.57-3.86-4.4-5.8-10.43-5.8-18.09,0-8.29,2.2-14.67,6.59-19.16Z"/>
        <path class="cls-1" d="m898.19,48.36V.9h9.85v18.1h18.45V.9h9.85v47.46h-9.85v-21.19h-18.45v21.19h-9.85Z"/>
      </g>
      <path class="cls-1" d="m87.66,254.25L0,5.83h62.86l40.26,125.02c5.58,17.3,10.98,34.66,15.98,52.13,3.34,11.67,5.47,23.51,8.6,35.18.31,1.17.68,2.39,1.52,3.26s2.3,1.27,3.28.56c.59-.43.88-1.14,1.13-1.82,3.22-8.77,4.79-18.46,7.45-27.46,6.05-20.47,12.78-40.74,19.56-60.98,0-.01,42.22-125.9,42.22-125.9h59.7l-90.09,248.68c-4.78,13.18-17.3,21.97-31.32,21.97h-22.08c-14.12,0-26.71-8.91-31.41-22.23Z"/>
      <path class="cls-1" d="m357.75,275.52c-22.77,0-42.79-4.25-60.06-12.76-17.27-8.5-30.76-20.34-40.44-35.53-9.68-15.17-14.53-32.58-14.53-52.21,0-21.98,4.64-40.89,13.94-56.72,9.28-15.83,21.59-27.94,36.9-36.31,15.31-8.38,32.39-12.57,51.23-12.57,21.2,0,38.86,4.45,53,13.35,14.13,8.9,24.86,21.07,32.19,36.51,7.32,15.45,10.99,32.85,10.99,52.22,0,3.67-.2,7.72-.59,12.17-.39,4.45-.98,7.99-1.77,10.6h-131.91c2.09,7.06,5.23,12.89,9.42,17.47,4.18,4.58,9.75,7.98,16.68,10.2,6.93,2.23,14.72,3.34,23.36,3.34h60.85v50.25h-59.28Zm-52.21-119.34h76.55c-.53-4.18-1.38-8.24-2.55-12.17-1.18-3.92-2.75-7.39-4.71-10.4-1.96-3.01-4.45-5.69-7.46-8.05-3.01-2.36-6.48-4.12-10.4-5.3-3.93-1.18-8.12-1.77-12.57-1.77-6.02,0-11.38,1.12-16.09,3.34-4.71,2.23-8.64,5.04-11.78,8.44-3.14,3.4-5.56,7.4-7.26,11.97-1.71,4.58-2.94,9.23-3.73,13.94Z"/>
      <path class="cls-1" d="m454.6,273.93l60.79-87.86c-10.76-5.44-19.76-12.07-27-19.88-7.24-7.81-12.85-16.68-16.82-26.61-3.98-9.92-6-20.51-6.05-31.77l-.18-35.33,61.24-.32.17,32.19c.03,6.28,1.3,12.1,3.82,17.45,2.51,5.36,5.94,9.78,10.27,13.3,4.34,3.51,9.13,6.04,14.37,7.58l119.38-106.9,68.7-.36-131.09,120.7c11.8,4.65,21.85,11.08,30.13,19.28,8.29,8.2,14.62,17.53,18.99,27.97,4.37,10.45,6.59,21.82,6.66,34.12l.18,35.33-61.24.32-.17-33.37c-.04-7.32-1.64-13.86-4.81-19.61-3.17-5.74-7.51-10.42-13.03-14.07-5.52-3.63-11.55-5.69-18.09-6.19l-47.51,73.66-68.7.36Z"/>
      <polygon class="cls-1" points="744.57 .73 585.63 .73 585.88 48.3 696.86 47.73 697.46 159.41 744.57 159.17 744.57 .73"/>
    </g>
  </g>
</svg>